<svg xmlns="http://www.w3.org/2000/svg" width="276.4786071777344" height="407.4548645019531" viewBox="-40.278663635253906 -100.2646713256836 276.4786071777344 407.4548645019531"><title>Neo4j Graph Visualization</title><desc>Created using Neo4j (http://www.neo4j.com/)</desc><g class="layer relationships"><g class="relationship" transform="translate(74.79792593898607 -29.203775608139292) rotate(201.5248305098135)"><path class="outline" fill="#A5ABB6" stroke="none" d="M 24.018736134675446,-6.953439040707552 L 24.277555179777966,-5.987513214418485 A 69.02574643449395 69.02574643449395 0 0 1 29.971229907968066,-7.257916948807107 L 29.79489710926338,-8.242247555920883 A 70.02574643449395 70.02574643449395 0 0 0 24.018736134675446,-6.953439040707552 Z M 51.86847093369583,-8.66082532727809 L 51.729582903657466,-7.670517236272033 A 69.02574643449395 69.02574643449395 0 0 1 57.46732795281641,-6.616885749635836 L 56.801289737297054,-3.6917544542120235 L 64.40364067805854,-5.550318462661306 L 58.35537890684222,-10.517060810200919 L 57.68934069132286,-7.591929514777107 A 70.02574643449395 70.02574643449395 0 0 0 51.86847093369583,-8.66082532727809"/><text text-anchor="middle" pointer-events="none" font-size="8px" fill="#000000" x="40.82456394603868" y="-5.827011494589598" transform="rotate(180 40.82456394603868 -8.827011494589598)" font-family="sans-serif">road</text></g><g class="relationship" transform="translate(-7.790190172530192 -61.77745193549309) rotate(356.77945721502715)"><path class="outline" fill="#A5ABB6" stroke="none" d="M 21.40063509461097,-12.933012701892217 L 21.90063509461097,-12.06698729810778 A 86.17692854991368 86.17692854991368 0 0 1 40.08234083922055,-19.93476821529471 L 39.79332196897941,-20.892091615533374 A 87.17692854991368 87.17692854991368 0 0 0 21.40063509461097,-12.933012701892217 Z M 85.95401593343978,-22.054069696804362 L 85.71352895009913,-21.08341733326543 A 86.17692854991368 86.17692854991368 0 0 1 104.26805943627477,-14.140377740839156 L 102.90067628416034,-11.47012245055068 L 110.72655230563362,-11.394859600953568 L 106.09123697242734,-17.70071812789046 L 104.72385382031291,-15.030462837601984 A 87.17692854991368 87.17692854991368 0 0 0 85.95401593343978,-22.054069696804362"/><text text-anchor="middle" pointer-events="none" font-size="8px" fill="#000000" x="62.80791906354529" y="-21.08505801752328" font-family="sans-serif">twowheeler</text></g><g class="relationship" transform="translate(124.97847443601484 -69.24812522437047) rotate(440.67235912897837)"><path class="outline" fill="#A5ABB6" stroke="none" d="M 21.40063509461097,12.933012701892217 L 21.90063509461097,12.06698729810778 A 77.43499428165758 77.43499428165758 0 0 0 35.89887750178952,18.38980633631205 L 35.57965161479923,19.337484991276526 A 78.43499428165758 78.43499428165758 0 0 1 21.40063509461097,12.933012701892217 Z M 81.63651845371976,20.57268175869082 L 81.36854640360647,19.6092550721401 A 77.43499428165758 77.43499428165758 0 0 0 95.68556561200111,14.045821593929892 L 94.32697701642343,11.37108104053668 L 102.15305833584823,11.321571629814136 L 97.49701707277137,17.612142331787506 L 96.13842847719368,14.937401778394294 A 78.43499428165758 78.43499428165758 0 0 1 81.63651845371976,20.57268175869082"/><text text-anchor="middle" pointer-events="none" font-size="8px" fill="#000000" x="58.528748856500094" y="25.913296892837025" font-family="sans-serif">twowheeler</text></g><g class="relationship" transform="translate(145.1481107732481 53.54901335367575) rotate(419.48751506568914)"><path class="outline" fill="#A5ABB6" stroke="none" d="M 25 0.5 L 47.93962389674372 0.5 L 47.93962389674372 -0.5 L 25 -0.5 Z M 67.27556139674371 0.5 L 90.21518529348744 0.5 L 90.21518529348744 3.5 L 97.21518529348744 0 L 90.21518529348744 -3.5 L 90.21518529348744 -0.5 L 67.27556139674371 -0.5 Z"/><text text-anchor="middle" pointer-events="none" font-size="8px" fill="#000000" x="57.60759264674372" y="3" font-family="sans-serif">trek</text></g><g class="relationship" transform="translate(74.79792593898607 -29.203775608139292) rotate(201.5248305098135)"><path class="outline" fill="#A5ABB6" stroke="none" d="M 24.018736134675446,6.953439040707552 L 24.277555179777966,5.987513214418485 A 69.02574643449395 69.02574643449395 0 0 0 31.280858589713464,7.479540536153493 L 31.12349883729069,8.467081881271483 A 70.02574643449395 70.02574643449395 0 0 1 24.018736134675446,6.953439040707552 Z M 50.5323004326374,8.835127988399904 L 50.412493534455415,7.842330774892517 A 69.02574643449395 69.02574643449395 0 0 0 57.46732795281641,6.616885749635836 L 56.801289737297054,3.6917544542120235 L 64.40364067805854,5.550318462661306 L 58.35537890684222,10.517060810200919 L 57.68934069132286,7.591929514777107 A 70.02574643449395 70.02574643449395 0 0 1 50.5323004326374,8.835127988399904"/><text text-anchor="middle" pointer-events="none" font-size="8px" fill="#000000" x="40.8245639460387" y="11.827011494589598" transform="rotate(180 40.8245639460387 8.827011494589598)" font-family="sans-serif">trek</text></g><g class="relationship" transform="translate(-7.790190172530192 -61.77745193549309) rotate(356.77945721502715)"><path class="outline" fill="#A5ABB6" stroke="none" d="M 25 0.5 L 51.983480487352125 0.5 L 51.983480487352125 -0.5 L 25 -0.5 Z M 73.99519923735213 0.5 L 100.97867972470425 0.5 L 100.97867972470425 3.5 L 107.97867972470425 0 L 100.97867972470425 -3.5 L 100.97867972470425 -0.5 L 73.99519923735213 -0.5 Z"/><text text-anchor="middle" pointer-events="none" font-size="8px" fill="#000000" x="62.989339862352125" y="3" font-family="sans-serif">road</text></g><g class="relationship" transform="translate(-7.790190172530192 -61.77745193549309) rotate(356.77945721502715)"><path class="outline" fill="#A5ABB6" stroke="none" d="M 21.40063509461097,12.933012701892217 L 21.90063509461097,12.06698729810778 A 86.17692854991368 86.17692854991368 0 0 0 53.244735249320925,22.808483056661473 L 53.1084532499753,23.799153141328603 A 87.17692854991368 87.17692854991368 0 0 1 21.40063509461097,12.933012701892217 Z M 72.50948521935909,24.287524783224143 L 72.42321943809237,23.291252624131843 A 86.17692854991368 86.17692854991368 0 0 0 104.26805943627477,14.140377740839156 L 102.90067628416034,11.47012245055068 L 110.72655230563362,11.394859600953568 L 106.09123697242734,17.70071812789046 L 104.72385382031291,15.030462837601984 A 87.17692854991368 87.17692854991368 0 0 1 72.50948521935909,24.287524783224143"/><text text-anchor="middle" pointer-events="none" font-size="8px" fill="#000000" x="62.8079190635453" y="27.08505801752328" font-family="sans-serif">trek</text></g><g class="relationship" transform="translate(124.97847443601484 -69.24812522437047) rotate(440.67235912897837)"><path class="outline" fill="#A5ABB6" stroke="none" d="M 25 0.5 L 47.715422098729164 0.5 L 47.715422098729164 -0.5 L 25 -0.5 Z M 69.72714084872916 0.5 L 92.44256294745833 0.5 L 92.44256294745833 3.5 L 99.44256294745833 0 L 92.44256294745833 -3.5 L 92.44256294745833 -0.5 L 69.72714084872916 -0.5 Z"/><text text-anchor="middle" pointer-events="none" font-size="8px" fill="#000000" x="58.721281473729164" y="3" font-family="sans-serif">road</text></g><g class="relationship" transform="translate(124.97847443601484 -69.24812522437047) rotate(440.67235912897837)"><path class="outline" fill="#A5ABB6" stroke="none" d="M 21.40063509461097,-12.933012701892217 L 21.90063509461097,-12.06698729810778 A 77.43499428165758 77.43499428165758 0 0 1 48.98022584272102,-21.56176869714018 L 48.829933245676486,-22.550410257703774 A 78.43499428165758 78.43499428165758 0 0 0 21.40063509461097,-12.933012701892217 Z M 68.23307311834702,-23.070782078310472 L 68.13598710523962,-22.075506083393023 A 77.43499428165758 77.43499428165758 0 0 1 95.68556561200111,-14.045821593929892 L 94.32697701642343,-11.37108104053668 L 102.15305833584823,-11.321571629814136 L 97.49701707277137,-17.612142331787506 L 96.13842847719368,-14.937401778394294 A 78.43499428165758 78.43499428165758 0 0 0 68.23307311834702,-23.070782078310472"/><text text-anchor="middle" pointer-events="none" font-size="8px" fill="#000000" x="58.52874885650011" y="-19.913296892837025" font-family="sans-serif">trek</text></g><g class="relationship" transform="translate(74.79792593898607 -29.203775608139292) rotate(485.7219429429133)"><path class="outline" fill="#A5ABB6" stroke="none" d="M 21.40063509461097,12.933012701892217 L 21.90063509461097,12.06698729810778 A 55.18672452279469 55.18672452279469 0 0 0 38.22016338273734,18.296795854612803 L 38.015878129884285,19.275707257890325 A 56.18672452279469 56.18672452279469 0 0 1 21.40063509461097,12.933012701892217 Z M 57.417555800900985,19.89910311530364 L 57.27653390449771,18.90909663818603 A 55.18672452279469 55.18672452279469 0 0 0 73.96232771146627,13.739783025240007 L 72.63220725765942,11.050772133041049 L 80.45837320223166,11.084337115057158 L 75.73582164987542,17.32513088150528 L 74.40570119606856,14.636119989306325 A 56.18672452279469 56.18672452279469 0 0 1 57.417555800900985,19.89910311530364"/><text text-anchor="middle" pointer-events="none" font-size="8px" fill="#000000" x="47.70564853573119" y="22.931883100689483" transform="rotate(180 47.70564853573119 19.931883100689483)" font-family="sans-serif">trek</text></g><g class="relationship" transform="translate(14.738922336194573 54.30966087844883) rotate(359.6658103684115)"><path class="outline" fill="#A5ABB6" stroke="none" d="M 25 0.5 L 52.037734630662726 0.5 L 52.037734630662726 -0.5 L 25 -0.5 Z M 71.37367213066273 0.5 L 98.41140676132545 0.5 L 98.41140676132545 3.5 L 105.41140676132545 0 L 98.41140676132545 -3.5 L 98.41140676132545 -0.5 L 71.37367213066273 -0.5 Z"/><text text-anchor="middle" pointer-events="none" font-size="8px" fill="#000000" x="61.705703380662726" y="3" font-family="sans-serif">trek</text></g><g class="relationship" transform="translate(74.79792593898607 -29.203775608139292) rotate(485.7219429429133)"><path class="outline" fill="#A5ABB6" stroke="none" d="M 25 0.5 L 36.9275392769448 0.5 L 36.9275392769448 -0.5 L 25 -0.5 Z M 58.9392580269448 0.5 L 70.8667973038896 0.5 L 70.8667973038896 3.5 L 77.8667973038896 0 L 70.8667973038896 -3.5 L 70.8667973038896 -0.5 L 58.9392580269448 -0.5 Z"/><text text-anchor="middle" pointer-events="none" font-size="8px" fill="#000000" x="47.9333986519448" y="3" transform="rotate(180 47.9333986519448 0)" font-family="sans-serif">road</text></g><g class="relationship" transform="translate(74.79792593898607 -29.203775608139292) rotate(485.7219429429133)"><path class="outline" fill="#A5ABB6" stroke="none" d="M 21.40063509461097,-12.933012701892217 L 21.90063509461097,-12.06698729810778 A 55.18672452279469 55.18672452279469 0 0 1 23.109159761769796,-12.744645352025074 L 22.631058591200407,-13.622950122990247 A 56.18672452279469 56.18672452279469 0 0 0 21.40063509461097,-12.933012701892217 Z M 73.13352459347855,-15.245646295394359 L 72.71279305167316,-14.338461104967365 A 55.18672452279469 55.18672452279469 0 0 1 73.96232771146627,-13.739783025240007 L 72.63220725765942,-11.050772133041049 L 80.45837320223166,-11.084337115057158 L 75.73582164987542,-17.32513088150528 L 74.40570119606856,-14.636119989306325 A 56.18672452279469 56.18672452279469 0 0 0 73.13352459347855,-15.245646295394359"/><text text-anchor="middle" pointer-events="none" font-size="8px" fill="#000000" x="47.70564853573118" y="-16.931883100689483" transform="rotate(180 47.70564853573118 -19.931883100689483)" font-family="sans-serif">PublicTran…</text></g><g class="relationship" transform="translate(14.738922336194573 54.30966087844883) rotate(462.58010760380984)"><path class="outline" fill="#A5ABB6" stroke="none" d="M 24.018736134675446,-6.953439040707552 L 24.277555179777966,-5.987513214418485 A 130.51315802795781 130.51315802795781 0 0 1 33.19270759213344,-8.044311123823633 L 33.00219700379545,-9.025996264656044 A 131.51315802795781 131.51315802795781 0 0 0 24.018736134675446,-6.953439040707552 Z M 79.39552629693188,-9.691940021819903 L 79.23327120015664,-8.705191176585998 A 130.51315802795781 130.51315802795781 0 0 1 88.20378613130174,-6.905129498263886 L 87.51082289741181,-3.986259518892276 L 95.12997662215048,-5.774693615749337 L 89.12773710982164,-10.796956137426033 L 88.43477387593171,-7.878086158054423 A 131.51315802795781 131.51315802795781 0 0 0 79.39552629693188,-9.691940021819903"/><text text-anchor="middle" pointer-events="none" font-size="8px" fill="#000000" x="56.17643768172671" y="-7.921145954565162" transform="rotate(180 56.17643768172671 -10.921145954565162)" font-family="sans-serif">twowheeler</text></g><g class="relationship" transform="translate(-11.278661403143085 170.895757464421) rotate(372.29218948274956)"><path class="outline" fill="#A5ABB6" stroke="none" d="M 24.018736134675446,-6.953439040707552 L 24.277555179777966,-5.987513214418485 A 116.15719329673082 116.15719329673082 0 0 1 29.630362063623735,-7.286586982721545 L 29.41762545846251,-8.263696565534275 A 117.15719329673082 117.15719329673082 0 0 0 24.018736134675446,-6.953439040707552 Z M 75.76840153999933,-8.969377171292976 L 75.58550920614918,-7.986244222898478 A 116.15719329673082 116.15719329673082 0 0 1 80.97538223830985,-6.850725447876719 L 80.28750060691631,-3.9306537259508056 L 87.90352986136924,-5.732346928279458 L 81.89255774683456,-10.744154410444605 L 81.20467611544102,-7.82408268851869 A 117.15719329673082 117.15719329673082 0 0 0 75.76840153999933,-8.969377171292976"/><text text-anchor="middle" pointer-events="none" font-size="8px" fill="#000000" x="52.565374137275064" y="-7.431955723059659" font-family="sans-serif">twowheeler</text></g><g class="relationship" transform="translate(98.38571140573886 194.7907979675173) rotate(341.71696173420855)"><path class="outline" fill="#A5ABB6" stroke="none" d="M 24.018736134675446,6.953439040707552 L 24.277555179777966,5.987513214418485 A 120.8616572909065 120.8616572909065 0 0 0 30.794637708912347,7.541512600888993 L 30.589740500355955,8.520296097851315 A 121.8616572909065 121.8616572909065 0 0 1 24.018736134675446,6.953439040707552 Z M 76.95641032645749,9.212479929681948 L 76.7808214095428,8.228016353790622 A 120.8616572909065 120.8616572909065 0 0 0 83.3413871536651,6.869246357894564 L 82.65177556301457,3.9495827036288085 L 90.2688709453936,5.746763255420982 L 84.26086927453245,10.762131230248905 L 83.57125768388192,7.842467575983148 A 121.8616572909065 121.8616572909065 0 0 1 76.95641032645749,9.212479929681948"/><text text-anchor="middle" pointer-events="none" font-size="8px" fill="#000000" x="53.7473108709134" y="13.592253282605299" font-family="sans-serif">twowheeler</text></g><g class="relationship" transform="translate(14.738922336194573 54.30966087844883) rotate(462.58010760380984)"><path class="outline" fill="#A5ABB6" stroke="none" d="M 24.018736134675446,6.953439040707552 L 24.277555179777966,5.987513214418485 A 130.51315802795781 130.51315802795781 0 0 0 46.56737018930622,9.927930588669028 L 46.479337104380626,10.924048139944233 A 131.51315802795781 131.51315802795781 0 0 1 24.018736134675446,6.953439040707552 Z M 65.86945968569815,11.202379772539103 L 65.81005411982962,10.20414584266905 A 130.51315802795781 130.51315802795781 0 0 0 88.20378613130174,6.905129498263886 L 87.51082289741181,3.986259518892276 L 95.12997662215048,5.774693615749337 L 89.12773710982164,10.796956137426033 L 88.43477387593171,7.878086158054423 A 131.51315802795781 131.51315802795781 0 0 1 65.86945968569815,11.202379772539103"/><text text-anchor="middle" pointer-events="none" font-size="8px" fill="#000000" x="56.17643768172674" y="13.921145954565162" transform="rotate(180 56.17643768172674 10.921145954565162)" font-family="sans-serif">trek</text></g><g class="relationship" transform="translate(98.38571140573886 194.7907979675173) rotate(341.71696173420855)"><path class="outline" fill="#A5ABB6" stroke="none" d="M 24.018736134675446,-6.953439040707552 L 24.277555179777966,-5.987513214418485 A 120.8616572909065 120.8616572909065 0 0 1 44.1436100270169,-9.5654884067405 L 44.049161182460466,-10.56101812290268 A 121.8616572909065 121.8616572909065 0 0 0 24.018736134675446,-6.953439040707552 Z M 63.44207125254,-10.850524763189767 L 63.37738136140876,-9.852619347839479 A 120.8616572909065 120.8616572909065 0 0 1 83.3413871536651,-6.869246357894564 L 82.65177556301457,-3.9495827036288085 L 90.2688709453936,-5.746763255420982 L 84.26086927453245,-10.762131230248905 L 83.57125768388192,-7.842467575983148 A 121.8616572909065 121.8616572909065 0 0 0 63.44207125254,-10.850524763189767"/><text text-anchor="middle" pointer-events="none" font-size="8px" fill="#000000" x="53.74731087091337" y="-7.592253282605299" font-family="sans-serif">trek</text></g><g class="relationship" transform="translate(-11.278661403143085 170.895757464421) rotate(372.29218948274956)"><path class="outline" fill="#A5ABB6" stroke="none" d="M 24.018736134675446,6.953439040707552 L 24.277555179777966,5.987513214418485 A 116.15719329673082 116.15719329673082 0 0 0 42.964653432399125,9.387011379259206 L 42.86671205420858,10.382203564939005 A 117.15719329673082 117.15719329673082 0 0 1 24.018736134675446,6.953439040707552 Z M 62.261055658106606,10.677478278756425 L 62.19345582573933,9.679765763718194 A 116.15719329673082 116.15719329673082 0 0 0 80.97538223830985,6.850725447876719 L 80.28750060691631,3.9306537259508056 L 87.90352986136924,5.732346928279458 L 81.89255774683456,10.744154410444605 L 81.20467611544102,7.82408268851869 A 117.15719329673082 117.15719329673082 0 0 1 62.261055658106606,10.677478278756425"/><text text-anchor="middle" pointer-events="none" font-size="8px" fill="#000000" x="52.565374137275086" y="13.431955723059659" font-family="sans-serif">trek</text></g><g class="relationship" transform="translate(14.738922336194573 54.30966087844883) rotate(259.01709193032787)"><path class="outline" fill="#A5ABB6" stroke="none" d="M 25 0.5 L 45.9585453361265 0.5 L 45.9585453361265 -0.5 L 25 -0.5 Z M 65.29448283612649 0.5 L 86.253028172253 0.5 L 86.253028172253 3.5 L 93.253028172253 0 L 86.253028172253 -3.5 L 86.253028172253 -0.5 L 65.29448283612649 -0.5 Z"/><text text-anchor="middle" pointer-events="none" font-size="8px" fill="#000000" x="55.6265140861265" y="3" transform="rotate(180 55.6265140861265 0)" font-family="sans-serif">trek</text></g><g class="relationship" transform="translate(-11.278661403143085 170.895757464421) rotate(425.55564195140096)"><path class="outline" fill="#A5ABB6" stroke="none" d="M 24.018736134675446,-6.953439040707552 L 24.277555179777966,-5.987513214418485 A 127.34446666441268 127.34446666441268 0 0 1 45.77091350549591,-9.809441946257436 L 45.68087571087645,-10.805380295524117 A 128.34446666441266 128.34446666441266 0 0 0 24.018736134675446,-6.953439040707552 Z M 65.0718904417656,-11.08728729895708 L 65.01084252747334,-10.089152462293953 A 127.34446666441268 127.34446666441268 0 0 1 86.60622044233851,-6.893648736256597 L 85.91432955526642,-3.974524381182528 L 93.53282575202336,-5.765757392267403 L 87.5287416251013,-10.785814543022022 L 86.83685073802921,-7.866690187947953 A 128.34446666441266 128.34446666441266 0 0 0 65.0718904417656,-11.08728729895708"/><text text-anchor="middle" pointer-events="none" font-size="8px" fill="#000000" x="55.37831912202667" y="-7.8131626083714565" font-family="sans-serif">trek</text></g><g class="relationship" transform="translate(37.492437900434204 278.19017127567054) rotate(306.13470130822935)"><path class="outline" fill="#A5ABB6" stroke="none" d="M 21.40063509461097,12.933012701892217 L 21.90063509461097,12.06698729810778 A 55.59880942656185 55.59880942656185 0 0 0 37.122743196461414,18.074546660023948 L 36.89652798176256,19.048624006356746 A 56.59880942656185 56.59880942656185 0 0 1 21.40063509461097,12.933012701892217 Z M 58.95094729247443,19.75468082329187 L 58.78750025925396,18.76812871248807 A 55.59880942656185 55.59880942656185 0 0 0 74.36269935137513,13.746523611312137 L 73.03195181570752,11.057822996458446 L 80.85812537531166,11.089562797230016 L 76.13702939893193,17.331457764450388 L 74.80628186326432,14.642757149596699 A 56.59880942656185 56.59880942656185 0 0 1 58.95094729247443,19.75468082329187"/><text text-anchor="middle" pointer-events="none" font-size="8px" fill="#000000" x="47.9049952892322" y="22.987089151978033" font-family="sans-serif">road</text></g><g class="relationship" transform="translate(-11.278661403143085 170.895757464421) rotate(425.55564195140096)"><path class="outline" fill="#A5ABB6" stroke="none" d="M 24.018736134675446,6.953439040707552 L 24.277555179777966,5.987513214418485 A 127.34446666441268 127.34446666441268 0 0 0 32.40410060679173,7.881978987595247 L 32.209097019399124,8.862781516600947 A 128.34446666441266 128.34446666441266 0 0 1 24.018736134675446,6.953439040707552 Z M 78.59444685859927,9.53713276421918 L 78.42803751526941,8.551076005988463 A 127.34446666441268 127.34446666441268 0 0 0 86.60622044233851,6.893648736256597 L 85.91432955526642,3.974524381182528 L 93.53282575202336,5.765757392267403 L 87.5287416251013,10.785814543022022 L 86.83685073802921,7.866690187947953 A 128.34446666441266 128.34446666441266 0 0 1 78.59444685859927,9.53713276421918"/><text text-anchor="middle" pointer-events="none" font-size="8px" fill="#000000" x="55.378319122026696" y="13.813162608371456" font-family="sans-serif">twowheeler</text></g><g class="relationship" transform="translate(37.492437900434204 278.19017127567054) rotate(306.13470130822935)"><path class="outline" fill="#A5ABB6" stroke="none" d="M 25 0.5 L 38.46401316621289 0.5 L 38.46401316621289 -0.5 L 25 -0.5 Z M 57.79995066621289 0.5 L 71.26396383242577 0.5 L 71.26396383242577 3.5 L 78.26396383242577 0 L 71.26396383242577 -3.5 L 71.26396383242577 -0.5 L 57.79995066621289 -0.5 Z"/><text text-anchor="middle" pointer-events="none" font-size="8px" fill="#000000" x="48.13198191621289" y="3" font-family="sans-serif">trek</text></g><g class="relationship" transform="translate(37.492437900434204 278.19017127567054) rotate(306.13470130822935)"><path class="outline" fill="#A5ABB6" stroke="none" d="M 21.40063509461097,-12.933012701892217 L 21.90063509461097,-12.06698729810778 A 55.59880942656185 55.59880942656185 0 0 1 25.71003397118303,-14.073832265549953 L 25.27854980660939,-14.97595277619262 A 56.59880942656185 56.59880942656185 0 0 0 21.40063509461097,-12.933012701892217 Z M 70.8056354137471,-16.433470595874923 L 70.43273718815385,-15.505598345320237 A 55.59880942656185 55.59880942656185 0 0 1 74.36269935137513,-13.746523611312137 L 73.03195181570752,-11.057822996458446 L 80.85812537531166,-11.089562797230016 L 76.13702939893193,-17.331457764450388 L 74.80628186326432,-14.642757149596699 A 56.59880942656185 56.59880942656185 0 0 0 70.8056354137471,-16.433470595874923"/><text text-anchor="middle" pointer-events="none" font-size="8px" fill="#000000" x="47.904995289232204" y="-16.987089151978033" font-family="sans-serif">twowheeler</text></g><g class="relationship" transform="translate(37.492437900434204 278.19017127567054) rotate(356.8592050917422)"><path class="outline" fill="#A5ABB6" stroke="none" d="M 25 0.5 L 49.136205743701225 0.5 L 49.136205743701225 -0.5 L 25 -0.5 Z M 68.47214324370123 0.5 L 92.60834898740245 0.5 L 92.60834898740245 3.5 L 99.60834898740245 0 L 92.60834898740245 -3.5 L 92.60834898740245 -0.5 L 68.47214324370123 -0.5 Z"/><text text-anchor="middle" pointer-events="none" font-size="8px" fill="#000000" x="58.804174493701225" y="3" font-family="sans-serif">trek</text></g><g class="relationship" transform="translate(161.91361428355404 271.3629093935643) rotate(291.92291371255754)"><path class="outline" fill="#A5ABB6" stroke="none" d="M 25 0.5 L 47.479235304143245 0.5 L 47.479235304143245 -0.5 L 25 -0.5 Z M 66.81517280414324 0.5 L 89.29440810828649 0.5 L 89.29440810828649 3.5 L 96.29440810828649 0 L 89.29440810828649 -3.5 L 89.29440810828649 -0.5 L 66.81517280414324 -0.5 Z"/><text text-anchor="middle" pointer-events="none" font-size="8px" fill="#000000" x="57.147204054143245" y="3" font-family="sans-serif">trek</text></g></g><g class="layer nodes"><g class="node" transform="translate(74.79792593898607,-29.203775608139292)"><circle class="outline" cx="0" cy="0" r="25" fill="#F16667" stroke="#eb2728" stroke-width="2px"/><text text-anchor="middle" pointer-events="none" font-family="sans-serif" dy="1.5625" font-size="25" fill="#FFFFFF"/><text text-anchor="middle" pointer-events="none" x="0" y="5" font-size="10px" fill="#FFFFFF" font-family="sans-serif"> Darjeeling</text></g><g class="node" transform="translate(207.1999504894296,158.83966205601203)"><circle class="outline" cx="0" cy="0" r="25" fill="#D9C8AE" stroke="#c0a378" stroke-width="2px"/><text text-anchor="middle" pointer-events="none" font-family="sans-serif" dy="1.5625" font-size="25" fill="#2A2C34"/><text text-anchor="middle" pointer-events="none" x="0" y="5" font-size="10px" fill="#2A2C34" font-family="sans-serif"> Sandak…</text></g><g class="node" transform="translate(98.38571140573886,194.7907979675173)"><circle class="outline" cx="0" cy="0" r="25" fill="#8DCC93" stroke="#5db665" stroke-width="2px"/><text text-anchor="middle" pointer-events="none" font-family="sans-serif" dy="1.5625" font-size="25" fill="#2A2C34"/><text text-anchor="middle" pointer-events="none" x="0" y="5" font-size="10px" fill="#2A2C34" font-family="sans-serif"> Gurdum</text></g><g class="node" transform="translate(-7.790190172530192,-61.77745193549309)"><circle class="outline" cx="0" cy="0" r="25" fill="#8DCC93" stroke="#5db665" stroke-width="2px"/><text text-anchor="middle" pointer-events="none" font-family="sans-serif" dy="1.5625" font-size="25" fill="#2A2C34"/><text text-anchor="middle" pointer-events="none" x="0" y="5" font-size="10px" fill="#2A2C34" font-family="sans-serif"> Tumbling</text></g><g class="node" transform="translate(124.97847443601484,-69.24812522437047)"><circle class="outline" cx="0" cy="0" r="25" fill="#8DCC93" stroke="#5db665" stroke-width="2px"/><text text-anchor="middle" pointer-events="none" font-family="sans-serif" dy="1.5625" font-size="25" fill="#2A2C34"/><text text-anchor="middle" pointer-events="none" x="0" y="5" font-size="10px" fill="#2A2C34" font-family="sans-serif"> Gairibus</text></g><g class="node" transform="translate(145.1481107732481,53.54901335367575)"><circle class="outline" cx="0" cy="0" r="25" fill="#8DCC93" stroke="#5db665" stroke-width="2px"/><text text-anchor="middle" pointer-events="none" font-family="sans-serif" dy="1.5625" font-size="25" fill="#2A2C34"/><text text-anchor="middle" pointer-events="none" x="0" y="5" font-size="10px" fill="#2A2C34" font-family="sans-serif"> BhikeBh…</text></g><g class="node" transform="translate(14.738922336194573,54.30966087844883)"><circle class="outline" cx="0" cy="0" r="25" fill="#F16667" stroke="#eb2728" stroke-width="2px"/><text text-anchor="middle" pointer-events="none" font-family="sans-serif" dy="1.5625" font-size="25" fill="#FFFFFF"/><text text-anchor="middle" pointer-events="none" x="0" y="5" font-size="10px" fill="#FFFFFF" font-family="sans-serif"> Rimbik</text></g><g class="node" transform="translate(-11.278661403143085,170.895757464421)"><circle class="outline" cx="0" cy="0" r="25" fill="#8DCC93" stroke="#5db665" stroke-width="2px"/><text text-anchor="middle" pointer-events="none" font-family="sans-serif" dy="1.5625" font-size="25" fill="#2A2C34"/><text text-anchor="middle" pointer-events="none" x="0" y="5" font-size="10px" fill="#2A2C34" font-family="sans-serif"> Sirikhola</text></g><g class="node" transform="translate(37.492437900434204,278.19017127567054)"><circle class="outline" cx="0" cy="0" r="25" fill="#8DCC93" stroke="#5db665" stroke-width="2px"/><text text-anchor="middle" pointer-events="none" font-family="sans-serif" dy="1.5625" font-size="25" fill="#2A2C34"/><text text-anchor="middle" pointer-events="none" x="0" y="5" font-size="10px" fill="#2A2C34" font-family="sans-serif"> Rammam</text></g><g class="node" transform="translate(161.91361428355404,271.3629093935643)"><circle class="outline" cx="0" cy="0" r="25" fill="#D9C8AE" stroke="#c0a378" stroke-width="2px"/><text text-anchor="middle" pointer-events="none" font-family="sans-serif" dy="1.5625" font-size="25" fill="#2A2C34"/><text text-anchor="middle" pointer-events="none" x="0" y="5" font-size="10px" fill="#2A2C34" font-family="sans-serif"> Sabargr…</text></g></g></svg>