<svg xmlns="http://www.w3.org/2000/svg" width="892.2352905273438" height="1262.9473876953125" viewBox="-355.4869384765625 -543.3339233398438 892.2352905273438 1262.9473876953125"><title>Neo4j Graph Visualization</title><desc>Created using Neo4j (http://www.neo4j.com/)</desc><g class="layer relationships"><g class="relationship" transform="translate(192.15216608223417 -149.2472995392514) rotate(262.1802198006893)"><path class="outline" fill="#A5ABB6" stroke="none" d="M 25 0.5 L 58.47790261683703 0.5 L 58.47790261683703 -0.5 L 25 -0.5 Z M 92.92321511683703 0.5 L 126.40111773367406 0.5 L 126.40111773367406 3.5 L 133.40111773367406 0 L 126.40111773367406 -3.5 L 126.40111773367406 -0.5 L 92.92321511683703 -0.5 Z"/><text text-anchor="middle" pointer-events="none" font-size="8px" fill="#000000" x="75.70055886683703" y="3" transform="rotate(180 75.70055886683703 0)" font-family="sans-serif">ORIGIN</text></g><g class="relationship" transform="translate(192.15216608223417 -149.2472995392514) rotate(423.7270328217164)"><path class="outline" fill="#A5ABB6" stroke="none" d="M 25 0.5 L 46.255082515198694 0.5 L 46.255082515198694 -0.5 L 25 -0.5 Z M 105.4425825151987 0.5 L 126.69766503039739 0.5 L 126.69766503039739 3.5 L 133.6976650303974 0 L 126.69766503039739 -3.5 L 126.69766503039739 -0.5 L 105.4425825151987 -0.5 Z"/><text text-anchor="middle" pointer-events="none" font-size="8px" fill="#000000" x="75.8488325151987" y="3" font-family="sans-serif">DESTINATION</text></g><g class="relationship" transform="translate(284.6903106426881 -359.0120767648932) rotate(515.1504643863159)"><path class="outline" fill="#A5ABB6" stroke="none" d="M 25 0.5 L 42.142671943198145 0.5 L 42.142671943198145 -0.5 L 25 -0.5 Z M 76.58798444319814 0.5 L 93.73065638639629 0.5 L 93.73065638639629 3.5 L 100.73065638639629 0 L 93.73065638639629 -3.5 L 93.73065638639629 -0.5 L 76.58798444319814 -0.5 Z"/><text text-anchor="middle" pointer-events="none" font-size="8px" fill="#000000" x="59.365328193198145" y="3" transform="rotate(180 59.365328193198145 0)" font-family="sans-serif">ORIGIN</text></g><g class="relationship" transform="translate(284.6903106426881 -359.0120767648932) rotate(339.07571277033014)"><path class="outline" fill="#A5ABB6" stroke="none" d="M 25 0.5 L 43.80284317771124 0.5 L 43.80284317771124 -0.5 L 25 -0.5 Z M 102.99034317771124 0.5 L 121.79318635542248 0.5 L 121.79318635542248 3.5 L 128.79318635542248 0 L 121.79318635542248 -3.5 L 121.79318635542248 -0.5 L 102.99034317771124 -0.5 Z"/><text text-anchor="middle" pointer-events="none" font-size="8px" fill="#000000" x="73.39659317771124" y="3" font-family="sans-serif">DESTINATION</text></g><g class="relationship" transform="translate(258.28294952552096 -412.77775221731736) rotate(489.4379547615973)"><path class="outline" fill="#A5ABB6" stroke="none" d="M 25 0.5 L 48.29232027163323 0.5 L 48.29232027163323 -0.5 L 25 -0.5 Z M 82.73763277163323 0.5 L 106.02995304326646 0.5 L 106.02995304326646 3.5 L 113.02995304326646 0 L 106.02995304326646 -3.5 L 106.02995304326646 -0.5 L 82.73763277163323 -0.5 Z"/><text text-anchor="middle" pointer-events="none" font-size="8px" fill="#000000" x="65.51497652163323" y="3" transform="rotate(180 65.51497652163323 0)" font-family="sans-serif">ORIGIN</text></g><g class="relationship" transform="translate(258.28294952552096 -412.77775221731736) rotate(359.609485513384)"><path class="outline" fill="#A5ABB6" stroke="none" d="M 25 0.5 L 51.937412367702095 0.5 L 51.937412367702095 -0.5 L 25 -0.5 Z M 111.1249123677021 0.5 L 138.0623247354042 0.5 L 138.0623247354042 3.5 L 145.0623247354042 0 L 138.0623247354042 -3.5 L 138.0623247354042 -0.5 L 111.1249123677021 -0.5 Z"/><text text-anchor="middle" pointer-events="none" font-size="8px" fill="#000000" x="81.5311623677021" y="3" font-family="sans-serif">DESTINATION</text></g><g class="relationship" transform="translate(285.187909905365 -200.31686354790307) rotate(222.73248270840776)"><path class="outline" fill="#A5ABB6" stroke="none" d="M 25 0.5 L 57.27784644240002 0.5 L 57.27784644240002 -0.5 L 25 -0.5 Z M 91.72315894240002 0.5 L 124.00100538480004 0.5 L 124.00100538480004 3.5 L 131.00100538480004 0 L 124.00100538480004 -3.5 L 124.00100538480004 -0.5 L 91.72315894240002 -0.5 Z"/><text text-anchor="middle" pointer-events="none" font-size="8px" fill="#000000" x="74.50050269240002" y="3" transform="rotate(180 74.50050269240002 0)" font-family="sans-serif">ORIGIN</text></g><g class="relationship" transform="translate(285.187909905365 -200.31686354790307) rotate(394.6525498476144)"><path class="outline" fill="#A5ABB6" stroke="none" d="M 25 0.5 L 54.360462478454124 0.5 L 54.360462478454124 -0.5 L 25 -0.5 Z M 113.54796247845412 0.5 L 142.90842495690825 0.5 L 142.90842495690825 3.5 L 149.90842495690825 0 L 142.90842495690825 -3.5 L 142.90842495690825 -0.5 L 113.54796247845412 -0.5 Z"/><text text-anchor="middle" pointer-events="none" font-size="8px" fill="#000000" x="83.95421247845412" y="3" font-family="sans-serif">DESTINATION</text></g><g class="relationship" transform="translate(318.01878029693876 -408.76045024361457) rotate(505.16682611141766)"><path class="outline" fill="#A5ABB6" stroke="none" d="M 25 0.5 L 69.07689529050046 0.5 L 69.07689529050046 -0.5 L 25 -0.5 Z M 103.52220779050046 0.5 L 147.59910308100092 0.5 L 147.59910308100092 3.5 L 154.59910308100092 0 L 147.59910308100092 -3.5 L 147.59910308100092 -0.5 L 103.52220779050046 -0.5 Z"/><text text-anchor="middle" pointer-events="none" font-size="8px" fill="#000000" x="86.29955154050046" y="3" transform="rotate(180 86.29955154050046 0)" font-family="sans-serif">ORIGIN</text></g><g class="relationship" transform="translate(318.01878029693876 -408.76045024361457) rotate(357.3136191076585)"><path class="outline" fill="#A5ABB6" stroke="none" d="M 25 0.5 L 25.239536578957043 0.5 L 25.239536578957043 -0.5 L 25 -0.5 Z M 78.20438032895704 0.5 L 78.44391690791409 0.5 L 78.44391690791409 3.5 L 85.44391690791409 0 L 78.44391690791409 -3.5 L 78.44391690791409 -0.5 L 78.20438032895704 -0.5 Z"/><text text-anchor="middle" pointer-events="none" font-size="8px" fill="#000000" x="51.72195845395704" y="3" font-family="sans-serif">DESTINAT…</text></g><g class="relationship" transform="translate(256.81350004332415 -147.48621210256553) rotate(241.48555961859716)"><path class="outline" fill="#A5ABB6" stroke="none" d="M 25 0.5 L 69.57539493863268 0.5 L 69.57539493863268 -0.5 L 25 -0.5 Z M 104.02070743863268 0.5 L 148.59610237726537 0.5 L 148.59610237726537 3.5 L 155.59610237726537 0 L 148.59610237726537 -3.5 L 148.59610237726537 -0.5 L 104.02070743863268 -0.5 Z"/><text text-anchor="middle" pointer-events="none" font-size="8px" fill="#000000" x="86.79805118863268" y="3" transform="rotate(180 86.79805118863268 0)" font-family="sans-serif">ORIGIN</text></g><g class="relationship" transform="translate(256.81350004332415 -147.48621210256553) rotate(407.04223113237936)"><path class="outline" fill="#A5ABB6" stroke="none" d="M 25 0.5 L 55.03588159832118 0.5 L 55.03588159832118 -0.5 L 25 -0.5 Z M 114.22338159832118 0.5 L 144.25926319664237 0.5 L 144.25926319664237 3.5 L 151.25926319664237 0 L 144.25926319664237 -3.5 L 144.25926319664237 -0.5 L 114.22338159832118 -0.5 Z"/><text text-anchor="middle" pointer-events="none" font-size="8px" fill="#000000" x="84.62963159832118" y="3" font-family="sans-serif">DESTINATION</text></g><g class="relationship" transform="translate(-12.326429323692643 -334.48666056479175) rotate(368.7977496761252)"><path class="outline" fill="#A5ABB6" stroke="none" d="M 25 0.5 L 71.8297389611582 0.5 L 71.8297389611582 -0.5 L 25 -0.5 Z M 106.2750514611582 0.5 L 153.1047904223164 0.5 L 153.1047904223164 3.5 L 160.1047904223164 0 L 153.1047904223164 -3.5 L 153.1047904223164 -0.5 L 106.2750514611582 -0.5 Z"/><text text-anchor="middle" pointer-events="none" font-size="8px" fill="#000000" x="89.0523952111582" y="3" font-family="sans-serif">ORIGIN</text></g><g class="relationship" transform="translate(-12.326429323692643 -334.48666056479175) rotate(513.2758590949709)"><path class="outline" fill="#A5ABB6" stroke="none" d="M 25 0.5 L 37.406714486356705 0.5 L 37.406714486356705 -0.5 L 25 -0.5 Z M 96.5942144863567 0.5 L 109.00092897271341 0.5 L 109.00092897271341 3.5 L 116.00092897271341 0 L 109.00092897271341 -3.5 L 109.00092897271341 -0.5 L 96.5942144863567 -0.5 Z"/><text text-anchor="middle" pointer-events="none" font-size="8px" fill="#000000" x="67.0004644863567" y="3" transform="rotate(180 67.0004644863567 0)" font-family="sans-serif">DESTINATION</text></g><g class="relationship" transform="translate(122.11912875341666 -463.1954239325739) rotate(432.841447829834)"><path class="outline" fill="#A5ABB6" stroke="none" d="M 25 0.5 L 61.44442910843456 0.5 L 61.44442910843456 -0.5 L 25 -0.5 Z M 95.88974160843456 0.5 L 132.33417071686912 0.5 L 132.33417071686912 3.5 L 139.33417071686912 0 L 132.33417071686912 -3.5 L 132.33417071686912 -0.5 L 95.88974160843456 -0.5 Z"/><text text-anchor="middle" pointer-events="none" font-size="8px" fill="#000000" x="78.66708535843456" y="3" font-family="sans-serif">ORIGIN</text></g><g class="relationship" transform="translate(122.11912875341666 -463.1954239325739) rotate(199.5277831228255)"><path class="outline" fill="#A5ABB6" stroke="none" d="M 25 0.5 L 43.40044473495392 0.5 L 43.40044473495392 -0.5 L 25 -0.5 Z M 102.58794473495392 0.5 L 120.98838946990784 0.5 L 120.98838946990784 3.5 L 127.98838946990784 0 L 120.98838946990784 -3.5 L 120.98838946990784 -0.5 L 102.58794473495392 -0.5 Z"/><text text-anchor="middle" pointer-events="none" font-size="8px" fill="#000000" x="72.99419473495392" y="3" transform="rotate(180 72.99419473495392 0)" font-family="sans-serif">DESTINATION</text></g><g class="relationship" transform="translate(340.9094699315056 -222.56719612906863) rotate(206.14738650456673)"><path class="outline" fill="#A5ABB6" stroke="none" d="M 25 0.5 L 74.13972566286041 0.5 L 74.13972566286041 -0.5 L 25 -0.5 Z M 108.58503816286041 0.5 L 157.72476382572083 0.5 L 157.72476382572083 3.5 L 164.72476382572083 0 L 157.72476382572083 -3.5 L 157.72476382572083 -0.5 L 108.58503816286041 -0.5 Z"/><text text-anchor="middle" pointer-events="none" font-size="8px" fill="#000000" x="91.36238191286041" y="3" transform="rotate(180 91.36238191286041 0)" font-family="sans-serif">ORIGIN</text></g><g class="relationship" transform="translate(340.9094699315056 -222.56719612906863) rotate(379.9518413671239)"><path class="outline" fill="#A5ABB6" stroke="none" d="M 25 0.5 L 55.652237467848565 0.5 L 55.652237467848565 -0.5 L 25 -0.5 Z M 114.83973746784856 0.5 L 145.49197493569713 0.5 L 145.49197493569713 3.5 L 152.49197493569713 0 L 145.49197493569713 -3.5 L 145.49197493569713 -0.5 L 114.83973746784856 -0.5 Z"/><text text-anchor="middle" pointer-events="none" font-size="8px" fill="#000000" x="85.24598746784856" y="3" font-family="sans-serif">DESTINATION</text></g><g class="relationship" transform="translate(291.62094943309694 -462.48872864218026) rotate(487.7476567691832)"><path class="outline" fill="#A5ABB6" stroke="none" d="M 25 0.5 L 78.12039820499764 0.5 L 78.12039820499764 -0.5 L 25 -0.5 Z M 112.56571070499764 0.5 L 165.68610890999528 0.5 L 165.68610890999528 3.5 L 172.68610890999528 0 L 165.68610890999528 -3.5 L 165.68610890999528 -0.5 L 112.56571070499764 -0.5 Z"/><text text-anchor="middle" pointer-events="none" font-size="8px" fill="#000000" x="95.34305445499764" y="3" transform="rotate(180 95.34305445499764 0)" font-family="sans-serif">ORIGIN</text></g><g class="relationship" transform="translate(291.62094943309694 -462.48872864218026) rotate(379.55087181651317)"><path class="outline" fill="#A5ABB6" stroke="none" d="M 25 0.5 L 39.4489029733363 0.5 L 39.4489029733363 -0.5 L 25 -0.5 Z M 98.6364029733363 0.5 L 113.0853059466726 0.5 L 113.0853059466726 3.5 L 120.0853059466726 0 L 113.0853059466726 -3.5 L 113.0853059466726 -0.5 L 98.6364029733363 -0.5 Z"/><text text-anchor="middle" pointer-events="none" font-size="8px" fill="#000000" x="69.0426529733363" y="3" font-family="sans-serif">DESTINATION</text></g><g class="relationship" transform="translate(-30.60436157812323 -277.37576483577357) rotate(351.85423727502643)"><path class="outline" fill="#A5ABB6" stroke="none" d="M 25 0.5 L 80.90511224476569 0.5 L 80.90511224476569 -0.5 L 25 -0.5 Z M 115.35042474476569 0.5 L 171.25553698953138 0.5 L 171.25553698953138 3.5 L 178.25553698953138 0 L 171.25553698953138 -3.5 L 171.25553698953138 -0.5 L 115.35042474476569 -0.5 Z"/><text text-anchor="middle" pointer-events="none" font-size="8px" fill="#000000" x="98.12776849476569" y="3" font-family="sans-serif">ORIGIN</text></g><g class="relationship" transform="translate(-30.60436157812323 -277.37576483577357) rotate(536.6528781686942)"><path class="outline" fill="#A5ABB6" stroke="none" d="M 25 0.5 L 26.08682667568312 0.5 L 26.08682667568312 -0.5 L 25 -0.5 Z M 74.75870167568311 0.5 L 75.84552835136624 0.5 L 75.84552835136624 3.5 L 82.84552835136624 0 L 75.84552835136624 -3.5 L 75.84552835136624 -0.5 L 74.75870167568311 -0.5 Z"/><text text-anchor="middle" pointer-events="none" font-size="8px" fill="#000000" x="50.42276417568312" y="3" transform="rotate(180 50.42276417568312 0)" font-family="sans-serif">DESTINA…</text></g><g class="relationship" transform="translate(62.527375039918894 -457.0479492876567) rotate(414.38518862604434)"><path class="outline" fill="#A5ABB6" stroke="none" d="M 25 0.5 L 72.07054677044567 0.5 L 72.07054677044567 -0.5 L 25 -0.5 Z M 106.51585927044567 0.5 L 153.58640604089135 0.5 L 153.58640604089135 3.5 L 160.58640604089135 0 L 153.58640604089135 -3.5 L 153.58640604089135 -0.5 L 106.51585927044567 -0.5 Z"/><text text-anchor="middle" pointer-events="none" font-size="8px" fill="#000000" x="89.29320302044567" y="3" font-family="sans-serif">ORIGIN</text></g><g class="relationship" transform="translate(62.527375039918894 -457.0479492876567) rotate(214.10451433706487)"><path class="outline" fill="#A5ABB6" stroke="none" d="M 25 0.5 L 25.915979580520045 0.5 L 25.915979580520045 -0.5 L 25 -0.5 Z M 69.25191708052004 0.5 L 70.16789666104009 0.5 L 70.16789666104009 3.5 L 77.16789666104009 0 L 70.16789666104009 -3.5 L 70.16789666104009 -0.5 L 69.25191708052004 -0.5 Z"/><text text-anchor="middle" pointer-events="none" font-size="8px" fill="#000000" x="47.583948330520045" y="3" transform="rotate(180 47.583948330520045 0)" font-family="sans-serif">DESTIN…</text></g><g class="relationship" transform="translate(311.1115369539418 -305.18981501565594) rotate(180.40189636008097)"><path class="outline" fill="#A5ABB6" stroke="none" d="M 25 0.5 L 49.534595522155 0.5 L 49.534595522155 -0.5 L 25 -0.5 Z M 83.979908022155 0.5 L 108.51450354431 0.5 L 108.51450354431 3.5 L 115.51450354431 0 L 108.51450354431 -3.5 L 108.51450354431 -0.5 L 83.979908022155 -0.5 Z"/><text text-anchor="middle" pointer-events="none" font-size="8px" fill="#000000" x="66.757251772155" y="3" transform="rotate(180 66.757251772155 0)" font-family="sans-serif">ORIGIN</text></g><g class="relationship" transform="translate(311.1115369539418 -305.18981501565594) rotate(317.1497688576799)"><path class="outline" fill="#A5ABB6" stroke="none" d="M 25 0.5 L 46.85739158401529 0.5 L 46.85739158401529 -0.5 L 25 -0.5 Z M 106.04489158401529 0.5 L 127.90228316803058 0.5 L 127.90228316803058 3.5 L 134.90228316803058 0 L 127.90228316803058 -3.5 L 127.90228316803058 -0.5 L 106.04489158401529 -0.5 Z"/><text text-anchor="middle" pointer-events="none" font-size="8px" fill="#000000" x="76.45114158401529" y="3" font-family="sans-serif">DESTINATION</text></g><g class="relationship" transform="translate(70.73146552103606 -194.8104968792592) rotate(311.88488478181637)"><path class="outline" fill="#A5ABB6" stroke="none" d="M 25 0.5 L 54.07034358126204 0.5 L 54.07034358126204 -0.5 L 25 -0.5 Z M 88.51565608126204 0.5 L 117.58599966252407 0.5 L 117.58599966252407 3.5 L 124.58599966252407 0 L 117.58599966252407 -3.5 L 117.58599966252407 -0.5 L 88.51565608126204 -0.5 Z"/><text text-anchor="middle" pointer-events="none" font-size="8px" fill="#000000" x="71.29299983126204" y="3" font-family="sans-serif">ORIGIN</text></g><g class="relationship" transform="translate(70.73146552103606 -194.8104968792592) rotate(477.78695479366036)"><path class="outline" fill="#A5ABB6" stroke="none" d="M 25 0.5 L 32.10898354167642 0.5 L 32.10898354167642 -0.5 L 25 -0.5 Z M 91.29648354167642 0.5 L 98.40546708335285 0.5 L 98.40546708335285 3.5 L 105.40546708335285 0 L 98.40546708335285 -3.5 L 98.40546708335285 -0.5 L 91.29648354167642 -0.5 Z"/><text text-anchor="middle" pointer-events="none" font-size="8px" fill="#000000" x="61.70273354167642" y="3" transform="rotate(180 61.70273354167642 0)" font-family="sans-serif">DESTINATION</text></g><g class="relationship" transform="translate(119.30209499378321 -159.68985516039209) rotate(289.29995647434725)"><path class="outline" fill="#A5ABB6" stroke="none" d="M 25 0.5 L 56.88138703982965 0.5 L 56.88138703982965 -0.5 L 25 -0.5 Z M 91.32669953982965 0.5 L 123.2080865796593 0.5 L 123.2080865796593 3.5 L 130.2080865796593 0 L 123.2080865796593 -3.5 L 123.2080865796593 -0.5 L 91.32669953982965 -0.5 Z"/><text text-anchor="middle" pointer-events="none" font-size="8px" fill="#000000" x="74.10404328982965" y="3" font-family="sans-serif">ORIGIN</text></g><g class="relationship" transform="translate(119.30209499378321 -159.68985516039209) rotate(503.7300414747682)"><path class="outline" fill="#A5ABB6" stroke="none" d="M 25 0.5 L 34.72968005536097 0.5 L 34.72968005536097 -0.5 L 25 -0.5 Z M 93.91718005536097 0.5 L 103.64686011072195 0.5 L 103.64686011072195 3.5 L 110.64686011072195 0 L 103.64686011072195 -3.5 L 103.64686011072195 -0.5 L 93.91718005536097 -0.5 Z"/><text text-anchor="middle" pointer-events="none" font-size="8px" fill="#000000" x="64.32343005536097" y="3" transform="rotate(180 64.32343005536097 0)" font-family="sans-serif">DESTINATION</text></g><g class="relationship" transform="translate(344.4512029168319 -354.9350521976015) rotate(524.3328742749113)"><path class="outline" fill="#A5ABB6" stroke="none" d="M 25 0.5 L 69.55686895810997 0.5 L 69.55686895810997 -0.5 L 25 -0.5 Z M 104.00218145810997 0.5 L 148.55905041621995 0.5 L 148.55905041621995 3.5 L 155.55905041621995 0 L 148.55905041621995 -3.5 L 148.55905041621995 -0.5 L 104.00218145810997 -0.5 Z"/><text text-anchor="middle" pointer-events="none" font-size="8px" fill="#000000" x="86.77952520810997" y="3" transform="rotate(180 86.77952520810997 0)" font-family="sans-serif">ORIGIN</text></g><g class="relationship" transform="translate(344.4512029168319 -354.9350521976015) rotate(324.88042370437574)"><path class="outline" fill="#A5ABB6" stroke="none" d="M 25 0.5 L 26.11254493554152 0.5 L 26.11254493554152 -0.5 L 25 -0.5 Z M 69.44848243554152 0.5 L 70.56102737108304 0.5 L 70.56102737108304 3.5 L 77.56102737108304 0 L 70.56102737108304 -3.5 L 70.56102737108304 -0.5 L 69.44848243554152 -0.5 Z"/><text text-anchor="middle" pointer-events="none" font-size="8px" fill="#000000" x="47.78051368554152" y="3" font-family="sans-serif">DESTIN…</text></g><g class="relationship" transform="translate(87.08617057633573 -402.5220458794659) rotate(409.08088895058216)"><path class="outline" fill="#A5ABB6" stroke="none" d="M 25 0.5 L 43.02942452757088 0.5 L 43.02942452757088 -0.5 L 25 -0.5 Z M 77.47473702757088 0.5 L 95.50416155514176 0.5 L 95.50416155514176 3.5 L 102.50416155514176 0 L 95.50416155514176 -3.5 L 95.50416155514176 -0.5 L 77.47473702757088 -0.5 Z"/><text text-anchor="middle" pointer-events="none" font-size="8px" fill="#000000" x="60.25208077757088" y="3" font-family="sans-serif">ORIGIN</text></g><g class="relationship" transform="translate(87.08617057633573 -402.5220458794659) rotate(225.68876151860042)"><path class="outline" fill="#A5ABB6" stroke="none" d="M 25 0.5 L 45.03564763504396 0.5 L 45.03564763504396 -0.5 L 25 -0.5 Z M 104.22314763504396 0.5 L 124.25879527008792 0.5 L 124.25879527008792 3.5 L 131.25879527008792 0 L 124.25879527008792 -3.5 L 124.25879527008792 -0.5 L 104.22314763504396 -0.5 Z"/><text text-anchor="middle" pointer-events="none" font-size="8px" fill="#000000" x="74.62939763504396" y="3" transform="rotate(180 74.62939763504396 0)" font-family="sans-serif">DESTINATION</text></g><g class="relationship" transform="translate(27.208332023766992 -400.2425448824519) rotate(393.26539299692786)"><path class="outline" fill="#A5ABB6" stroke="none" d="M 25 0.5 L 65.0239652376699 0.5 L 65.0239652376699 -0.5 L 25 -0.5 Z M 99.4692777376699 0.5 L 139.4932429753398 0.5 L 139.4932429753398 3.5 L 146.4932429753398 0 L 139.4932429753398 -3.5 L 139.4932429753398 -0.5 L 99.4692777376699 -0.5 Z"/><text text-anchor="middle" pointer-events="none" font-size="8px" fill="#000000" x="82.2466214876699" y="3" font-family="sans-serif">ORIGIN</text></g><g class="relationship" transform="translate(27.208332023766992 -400.2425448824519) rotate(246.63982360654654)"><path class="outline" fill="#A5ABB6" stroke="none" d="M 25 0.5 L 29.045462108817 0.5 L 29.045462108817 -0.5 L 25 -0.5 Z M 88.23296210881699 0.5 L 92.278424217634 0.5 L 92.278424217634 3.5 L 99.278424217634 0 L 92.278424217634 -3.5 L 92.278424217634 -0.5 L 88.23296210881699 -0.5 Z"/><text text-anchor="middle" pointer-events="none" font-size="8px" fill="#000000" x="58.639212108817" y="3" transform="rotate(180 58.639212108817 0)" font-family="sans-serif">DESTINATION</text></g><g class="relationship" transform="translate(370.8617507871915 -301.12471960079864) rotate(181.44472915185042)"><path class="outline" fill="#A5ABB6" stroke="none" d="M 25 0.5 L 79.43981452846113 0.5 L 79.43981452846113 -0.5 L 25 -0.5 Z M 113.88512702846113 0.5 L 168.32494155692225 0.5 L 168.32494155692225 3.5 L 175.32494155692225 0 L 168.32494155692225 -3.5 L 168.32494155692225 -0.5 L 113.88512702846113 -0.5 Z"/><text text-anchor="middle" pointer-events="none" font-size="8px" fill="#000000" x="96.66247077846113" y="3" transform="rotate(180 96.66247077846113 0)" font-family="sans-serif">ORIGIN</text></g><g class="relationship" transform="translate(370.8617507871915 -301.12471960079864) rotate(296.9995657631652)"><path class="outline" fill="#A5ABB6" stroke="none" d="M 25 0.5 L 30.212011262092823 0.5 L 30.212011262092823 -0.5 L 25 -0.5 Z M 89.39951126209283 0.5 L 94.61152252418565 0.5 L 94.61152252418565 3.5 L 101.61152252418565 0 L 94.61152252418565 -3.5 L 94.61152252418565 -0.5 L 89.39951126209283 -0.5 Z"/><text text-anchor="middle" pointer-events="none" font-size="8px" fill="#000000" x="59.80576126209282" y="3" font-family="sans-serif">DESTINATION</text></g><g class="relationship" transform="translate(27.872251995305348 -289.9661314435268) rotate(353.5208163601437)"><path class="outline" fill="#A5ABB6" stroke="none" d="M 25 0.5 L 51.10020129996232 0.5 L 51.10020129996232 -0.5 L 25 -0.5 Z M 85.54551379996232 0.5 L 111.64571509992464 0.5 L 111.64571509992464 3.5 L 118.64571509992464 0 L 111.64571509992464 -3.5 L 111.64571509992464 -0.5 L 85.54551379996232 -0.5 Z"/><text text-anchor="middle" pointer-events="none" font-size="8px" fill="#000000" x="68.32285754996232" y="3" font-family="sans-serif">ORIGIN</text></g><g class="relationship" transform="translate(27.872251995305348 -289.9661314435268) rotate(533.5143393840825)"><path class="outline" fill="#A5ABB6" stroke="none" d="M 25 0.5 L 50.51038955110768 0.5 L 50.51038955110768 -0.5 L 25 -0.5 Z M 109.69788955110768 0.5 L 135.20827910221536 0.5 L 135.20827910221536 3.5 L 142.20827910221536 0 L 135.20827910221536 -3.5 L 135.20827910221536 -0.5 L 109.69788955110768 -0.5 Z"/><text text-anchor="middle" pointer-events="none" font-size="8px" fill="#000000" x="80.10413955110768" y="3" transform="rotate(180 80.10413955110768 0)" font-family="sans-serif">DESTINATION</text></g><g class="relationship" transform="translate(8.407926093563415 -231.93391996121923) rotate(335.40468440972415)"><path class="outline" fill="#A5ABB6" stroke="none" d="M 25 0.5 L 68.46567012579919 0.5 L 68.46567012579919 -0.5 L 25 -0.5 Z M 102.91098262579919 0.5 L 146.37665275159839 0.5 L 146.37665275159839 3.5 L 153.37665275159839 0 L 146.37665275159839 -3.5 L 146.37665275159839 -0.5 L 102.91098262579919 -0.5 Z"/><text text-anchor="middle" pointer-events="none" font-size="8px" fill="#000000" x="85.68832637579919" y="3" font-family="sans-serif">ORIGIN</text></g><g class="relationship" transform="translate(8.407926093563415 -231.93391996121923) rotate(194.94317808734064)"><path class="outline" fill="#A5ABB6" stroke="none" d="M 25 0.5 L 42.810086837184215 0.5 L 42.810086837184215 -0.5 L 25 -0.5 Z M 101.99758683718422 0.5 L 119.80767367436843 0.5 L 119.80767367436843 3.5 L 126.80767367436843 0 L 119.80767367436843 -3.5 L 119.80767367436843 -0.5 L 101.99758683718422 -0.5 Z"/><text text-anchor="middle" pointer-events="none" font-size="8px" fill="#000000" x="72.40383683718422" y="3" transform="rotate(180 72.40383683718422 0)" font-family="sans-serif">DESTINATION</text></g><g class="relationship" transform="translate(49.81167924494021 302.85574151279883) rotate(484.8766165161011)"><path class="outline" fill="#A5ABB6" stroke="none" d="M 25 0.5 L 62.65562534784215 0.5 L 62.65562534784215 -0.5 L 25 -0.5 Z M 97.10093784784215 0.5 L 134.7565631956843 0.5 L 134.7565631956843 3.5 L 141.7565631956843 0 L 134.7565631956843 -3.5 L 134.7565631956843 -0.5 L 97.10093784784215 -0.5 Z"/><text text-anchor="middle" pointer-events="none" font-size="8px" fill="#000000" x="79.87828159784215" y="3" transform="rotate(180 79.87828159784215 0)" font-family="sans-serif">ORIGIN</text></g><g class="relationship" transform="translate(49.81167924494021 302.85574151279883) rotate(345.5476024518839)"><path class="outline" fill="#A5ABB6" stroke="none" d="M 25 0.5 L 40.65049976224509 0.5 L 40.65049976224509 -0.5 L 25 -0.5 Z M 99.83799976224509 0.5 L 115.48849952449018 0.5 L 115.48849952449018 3.5 L 122.48849952449018 0 L 115.48849952449018 -3.5 L 115.48849952449018 -0.5 L 99.83799976224509 -0.5 Z"/><text text-anchor="middle" pointer-events="none" font-size="8px" fill="#000000" x="70.24424976224509" y="3" font-family="sans-serif">DESTINATION</text></g><g class="relationship" transform="translate(138.61728557379905 486.97265058826434) rotate(194.4082643162804)"><path class="outline" fill="#A5ABB6" stroke="none" d="M 25 0.5 L 74.34697277509457 0.5 L 74.34697277509457 -0.5 L 25 -0.5 Z M 108.79228527509457 0.5 L 158.13925805018914 0.5 L 158.13925805018914 3.5 L 165.13925805018914 0 L 158.13925805018914 -3.5 L 158.13925805018914 -0.5 L 108.79228527509457 -0.5 Z"/><text text-anchor="middle" pointer-events="none" font-size="8px" fill="#000000" x="91.56962902509457" y="3" transform="rotate(180 91.56962902509457 0)" font-family="sans-serif">ORIGIN</text></g><g class="relationship" transform="translate(138.61728557379905 486.97265058826434) rotate(338.6102831660837)"><path class="outline" fill="#A5ABB6" stroke="none" d="M 25 0.5 L 40.745671349866456 0.5 L 40.745671349866456 -0.5 L 25 -0.5 Z M 99.93317134986646 0.5 L 115.67884269973291 0.5 L 115.67884269973291 3.5 L 122.67884269973291 0 L 115.67884269973291 -3.5 L 115.67884269973291 -0.5 L 99.93317134986646 -0.5 Z"/><text text-anchor="middle" pointer-events="none" font-size="8px" fill="#000000" x="70.33942134986646" y="3" font-family="sans-serif">DESTINATION</text></g><g class="relationship" transform="translate(-226.3729445473569 378.43695418434913) rotate(378.7043722980376)"><path class="outline" fill="#A5ABB6" stroke="none" d="M 25 0.5 L 74.73452186087783 0.5 L 74.73452186087783 -0.5 L 25 -0.5 Z M 109.17983436087783 0.5 L 158.91435622175567 0.5 L 158.91435622175567 3.5 L 165.91435622175567 0 L 158.91435622175567 -3.5 L 158.91435622175567 -0.5 L 109.17983436087783 -0.5 Z"/><text text-anchor="middle" pointer-events="none" font-size="8px" fill="#000000" x="91.95717811087783" y="3" font-family="sans-serif">ORIGIN</text></g><g class="relationship" transform="translate(-226.3729445473569 378.43695418434913) rotate(205.80925687271395)"><path class="outline" fill="#A5ABB6" stroke="none" d="M 25 0.5 L 25.621106513387453 0.5 L 25.621106513387453 -0.5 L 25 -0.5 Z M 78.58595026338745 0.5 L 79.2070567767749 0.5 L 79.2070567767749 3.5 L 86.2070567767749 0 L 79.2070567767749 -3.5 L 79.2070567767749 -0.5 L 78.58595026338745 -0.5 Z"/><text text-anchor="middle" pointer-events="none" font-size="8px" fill="#000000" x="52.10352838838745" y="3" transform="rotate(180 52.10352838838745 0)" font-family="sans-serif">DESTINAT…</text></g><g class="relationship" transform="translate(-137.3604095318606 589.1286397642776) rotate(301.5625396184605)"><path class="outline" fill="#A5ABB6" stroke="none" d="M 25 0.5 L 66.98632274227968 0.5 L 66.98632274227968 -0.5 L 25 -0.5 Z M 101.43163524227968 0.5 L 143.41795798455937 0.5 L 143.41795798455937 3.5 L 150.41795798455937 0 L 143.41795798455937 -3.5 L 143.41795798455937 -0.5 L 101.43163524227968 -0.5 Z"/><text text-anchor="middle" pointer-events="none" font-size="8px" fill="#000000" x="84.20897899227968" y="3" font-family="sans-serif">ORIGIN</text></g><g class="relationship" transform="translate(-137.3604095318606 589.1286397642776) rotate(479.7195552998914)"><path class="outline" fill="#A5ABB6" stroke="none" d="M 25 0.5 L 25.26132434125862 0.5 L 25.26132434125862 -0.5 L 25 -0.5 Z M 68.59726184125861 0.5 L 68.85858618251724 0.5 L 68.85858618251724 3.5 L 75.85858618251724 0 L 68.85858618251724 -3.5 L 68.85858618251724 -0.5 L 68.59726184125861 -0.5 Z"/><text text-anchor="middle" pointer-events="none" font-size="8px" fill="#000000" x="46.92929309125862" y="3" transform="rotate(180 46.92929309125862 0)" font-family="sans-serif">DESTIN…</text></g><g class="relationship" transform="translate(104.98241427854596 437.3347359664666) rotate(539.1148335567448)"><path class="outline" fill="#A5ABB6" stroke="none" d="M 25 0.5 L 54.54832114237877 0.5 L 54.54832114237877 -0.5 L 25 -0.5 Z M 88.99363364237877 0.5 L 118.54195478475754 0.5 L 118.54195478475754 3.5 L 125.54195478475754 0 L 118.54195478475754 -3.5 L 118.54195478475754 -0.5 L 88.99363364237877 -0.5 Z"/><text text-anchor="middle" pointer-events="none" font-size="8px" fill="#000000" x="71.77097739237877" y="3" transform="rotate(180 71.77097739237877 0)" font-family="sans-serif">ORIGIN</text></g><g class="relationship" transform="translate(104.98241427854596 437.3347359664666) rotate(358.58682634378465)"><path class="outline" fill="#A5ABB6" stroke="none" d="M 25 0.5 L 52.50317736174391 0.5 L 52.50317736174391 -0.5 L 25 -0.5 Z M 111.69067736174391 0.5 L 139.19385472348782 0.5 L 139.19385472348782 3.5 L 146.19385472348782 0 L 139.19385472348782 -3.5 L 139.19385472348782 -0.5 L 111.69067736174391 -0.5 Z"/><text text-anchor="middle" pointer-events="none" font-size="8px" fill="#000000" x="82.09692736174391" y="3" font-family="sans-serif">DESTINATION</text></g><g class="relationship" transform="translate(-93.37080556242834 282.94243229543133) rotate(433.02817423632087)"><path class="outline" fill="#A5ABB6" stroke="none" d="M 25 0.5 L 61.204368079852046 0.5 L 61.204368079852046 -0.5 L 25 -0.5 Z M 95.64968057985205 0.5 L 131.8540486597041 0.5 L 131.8540486597041 3.5 L 138.8540486597041 0 L 131.8540486597041 -3.5 L 131.8540486597041 -0.5 L 95.64968057985205 -0.5 Z"/><text text-anchor="middle" pointer-events="none" font-size="8px" fill="#000000" x="78.42702432985205" y="3" font-family="sans-serif">ORIGIN</text></g><g class="relationship" transform="translate(-93.37080556242834 282.94243229543133) rotate(229.94835258765147)"><path class="outline" fill="#A5ABB6" stroke="none" d="M 25 0.5 L 53.26874808485036 0.5 L 53.26874808485036 -0.5 L 25 -0.5 Z M 112.45624808485036 0.5 L 140.72499616970072 0.5 L 140.72499616970072 3.5 L 147.72499616970072 0 L 140.72499616970072 -3.5 L 140.72499616970072 -0.5 L 112.45624808485036 -0.5 Z"/><text text-anchor="middle" pointer-events="none" font-size="8px" fill="#000000" x="82.86249808485036" y="3" transform="rotate(180 82.86249808485036 0)" font-family="sans-serif">DESTINATION</text></g><g class="relationship" transform="translate(78.67159783655937 355.3328247504296) rotate(505.82766080011135)"><path class="outline" fill="#A5ABB6" stroke="none" d="M 25 0.5 L 54.34406149199242 0.5 L 54.34406149199242 -0.5 L 25 -0.5 Z M 88.78937399199242 0.5 L 118.13343548398484 0.5 L 118.13343548398484 3.5 L 125.13343548398484 0 L 118.13343548398484 -3.5 L 118.13343548398484 -0.5 L 88.78937399199242 -0.5 Z"/><text text-anchor="middle" pointer-events="none" font-size="8px" fill="#000000" x="71.56671774199242" y="3" transform="rotate(180 71.56671774199242 0)" font-family="sans-serif">ORIGIN</text></g><g class="relationship" transform="translate(78.67159783655937 355.3328247504296) rotate(321.9219591265382)"><path class="outline" fill="#A5ABB6" stroke="none" d="M 25 0.5 L 39.29286650356207 0.5 L 39.29286650356207 -0.5 L 25 -0.5 Z M 98.48036650356207 0.5 L 112.77323300712413 0.5 L 112.77323300712413 3.5 L 119.77323300712413 0 L 112.77323300712413 -3.5 L 112.77323300712413 -0.5 L 98.48036650356207 -0.5 Z"/><text text-anchor="middle" pointer-events="none" font-size="8px" fill="#000000" x="68.88661650356207" y="3" font-family="sans-serif">DESTINATION</text></g><g class="relationship" transform="translate(109.59940592988055 539.5171240335297) rotate(212.76742475778826)"><path class="outline" fill="#A5ABB6" stroke="none" d="M 25 0.5 L 71.52713263934905 0.5 L 71.52713263934905 -0.5 L 25 -0.5 Z M 105.97244513934905 0.5 L 152.4995777786981 0.5 L 152.4995777786981 3.5 L 159.4995777786981 0 L 152.4995777786981 -3.5 L 152.4995777786981 -0.5 L 105.97244513934905 -0.5 Z"/><text text-anchor="middle" pointer-events="none" font-size="8px" fill="#000000" x="88.74978888934905" y="3" transform="rotate(180 88.74978888934905 0)" font-family="sans-serif">ORIGIN</text></g><g class="relationship" transform="translate(109.59940592988055 539.5171240335297) rotate(382.42012711182844)"><path class="outline" fill="#A5ABB6" stroke="none" d="M 25 0.5 L 52.59242833768724 0.5 L 52.59242833768724 -0.5 L 25 -0.5 Z M 111.77992833768724 0.5 L 139.37235667537448 0.5 L 139.37235667537448 3.5 L 146.37235667537448 0 L 139.37235667537448 -3.5 L 139.37235667537448 -0.5 L 111.77992833768724 -0.5 Z"/><text text-anchor="middle" pointer-events="none" font-size="8px" fill="#000000" x="82.18617833768724" y="3" font-family="sans-serif">DESTINATION</text></g><g class="relationship" transform="translate(132.0466736159546 382.8248585567168) rotate(522.2531983471292)"><path class="outline" fill="#A5ABB6" stroke="none" d="M 25 0.5 L 72.50805539841372 0.5 L 72.50805539841372 -0.5 L 25 -0.5 Z M 106.95336789841372 0.5 L 154.46142329682743 0.5 L 154.46142329682743 3.5 L 161.46142329682743 0 L 154.46142329682743 -3.5 L 154.46142329682743 -0.5 L 106.95336789841372 -0.5 Z"/><text text-anchor="middle" pointer-events="none" font-size="8px" fill="#000000" x="89.73071164841372" y="3" transform="rotate(180 89.73071164841372 0)" font-family="sans-serif">ORIGIN</text></g><g class="relationship" transform="translate(132.0466736159546 382.8248585567168) rotate(379.2407003465016)"><path class="outline" fill="#A5ABB6" stroke="none" d="M 25 0.5 L 43.206979509677424 0.5 L 43.206979509677424 -0.5 L 25 -0.5 Z M 102.39447950967742 0.5 L 120.60145901935485 0.5 L 120.60145901935485 3.5 L 127.60145901935485 0 L 120.60145901935485 -3.5 L 120.60145901935485 -0.5 L 102.39447950967742 -0.5 Z"/><text text-anchor="middle" pointer-events="none" font-size="8px" fill="#000000" x="72.80072950967742" y="3" font-family="sans-serif">DESTINATION</text></g><g class="relationship" transform="translate(-262.2523523831893 426.3260607245632) rotate(363.520997172173)"><path class="outline" fill="#A5ABB6" stroke="none" d="M 25 0.5 L 87.83765501194848 0.5 L 87.83765501194848 -0.5 L 25 -0.5 Z M 122.28296751194848 0.5 L 185.12062252389697 0.5 L 185.12062252389697 3.5 L 192.12062252389697 0 L 185.12062252389697 -3.5 L 185.12062252389697 -0.5 L 122.28296751194848 -0.5 Z"/><text text-anchor="middle" pointer-events="none" font-size="8px" fill="#000000" x="105.06031126194848" y="3" font-family="sans-serif">ORIGIN</text></g><g class="relationship" transform="translate(-262.2523523831893 426.3260607245632) rotate(236.29735659616756)"><path class="outline" fill="#A5ABB6" stroke="none" d="M 25 0.5 L 26.787455420379025 0.5 L 26.787455420379025 -0.5 L 25 -0.5 Z M 81.97495542037902 0.5 L 83.76241084075805 0.5 L 83.76241084075805 3.5 L 90.76241084075805 0 L 83.76241084075805 -3.5 L 83.76241084075805 -0.5 L 81.97495542037902 -0.5 Z"/><text text-anchor="middle" pointer-events="none" font-size="8px" fill="#000000" x="54.381205420379025" y="3" transform="rotate(180 54.381205420379025 0)" font-family="sans-serif">DESTINATI…</text></g><g class="relationship" transform="translate(-26.126552390970218 296.8527698832269) rotate(457.7420274256132)"><path class="outline" fill="#A5ABB6" stroke="none" d="M 25 0.5 L 51.33800505347837 0.5 L 51.33800505347837 -0.5 L 25 -0.5 Z M 85.78331755347837 0.5 L 112.12132260695674 0.5 L 112.12132260695674 3.5 L 119.12132260695674 0 L 112.12132260695674 -3.5 L 112.12132260695674 -0.5 L 85.78331755347837 -0.5 Z"/><text text-anchor="middle" pointer-events="none" font-size="8px" fill="#000000" x="68.56066130347837" y="3" transform="rotate(180 68.56066130347837 0)" font-family="sans-serif">ORIGIN</text></g><g class="relationship" transform="translate(-26.126552390970218 296.8527698832269) rotate(262.7878745666256)"><path class="outline" fill="#A5ABB6" stroke="none" d="M 25 0.5 L 40.925065799369136 0.5 L 40.925065799369136 -0.5 L 25 -0.5 Z M 100.11256579936914 0.5 L 116.03763159873827 0.5 L 116.03763159873827 3.5 L 123.03763159873827 0 L 116.03763159873827 -3.5 L 116.03763159873827 -0.5 L 100.11256579936914 -0.5 Z"/><text text-anchor="middle" pointer-events="none" font-size="8px" fill="#000000" x="70.51881579936914" y="3" transform="rotate(180 70.51881579936914 0)" font-family="sans-serif">DESTINATION</text></g><g class="relationship" transform="translate(-170.4447831337311 356.9111161400087) rotate(393.5247555076744)"><path class="outline" fill="#A5ABB6" stroke="none" d="M 25 0.5 L 54.191046308567394 0.5 L 54.191046308567394 -0.5 L 25 -0.5 Z M 88.6363588085674 0.5 L 117.82740511713479 0.5 L 117.82740511713479 3.5 L 124.82740511713479 0 L 117.82740511713479 -3.5 L 117.82740511713479 -0.5 L 88.6363588085674 -0.5 Z"/><text text-anchor="middle" pointer-events="none" font-size="8px" fill="#000000" x="71.4137025585674" y="3" font-family="sans-serif">ORIGIN</text></g><g class="relationship" transform="translate(-170.4447831337311 356.9111161400087) rotate(189.7778746215755)"><path class="outline" fill="#A5ABB6" stroke="none" d="M 25 0.5 L 46.0773959709168 0.5 L 46.0773959709168 -0.5 L 25 -0.5 Z M 105.2648959709168 0.5 L 126.3422919418336 0.5 L 126.3422919418336 3.5 L 133.3422919418336 0 L 126.3422919418336 -3.5 L 126.3422919418336 -0.5 L 105.2648959709168 -0.5 Z"/><text text-anchor="middle" pointer-events="none" font-size="8px" fill="#000000" x="75.6711459709168" y="3" transform="rotate(180 75.6711459709168 0)" font-family="sans-serif">DESTINATION</text></g><g class="relationship" transform="translate(10.171405076771608 601.7712857875736) rotate(251.0335889823599)"><path class="outline" fill="#A5ABB6" stroke="none" d="M 25 0.5 L 64.9859826661255 0.5 L 64.9859826661255 -0.5 L 25 -0.5 Z M 99.4312951661255 0.5 L 139.417277832251 0.5 L 139.417277832251 3.5 L 146.417277832251 0 L 139.417277832251 -3.5 L 139.417277832251 -0.5 L 99.4312951661255 -0.5 Z"/><text text-anchor="middle" pointer-events="none" font-size="8px" fill="#000000" x="82.2086389161255" y="3" transform="rotate(180 82.2086389161255 0)" font-family="sans-serif">ORIGIN</text></g><g class="relationship" transform="translate(10.171405076771608 601.7712857875736) rotate(399.97284882800153)"><path class="outline" fill="#A5ABB6" stroke="none" d="M 25 0.5 L 36.052241284204456 0.5 L 36.052241284204456 -0.5 L 25 -0.5 Z M 95.23974128420446 0.5 L 106.29198256840891 0.5 L 106.29198256840891 3.5 L 113.29198256840891 0 L 106.29198256840891 -3.5 L 106.29198256840891 -0.5 L 95.23974128420446 -0.5 Z"/><text text-anchor="middle" pointer-events="none" font-size="8px" fill="#000000" x="65.64599128420446" y="3" font-family="sans-serif">DESTINATION</text></g><g class="relationship" transform="translate(-171.99174675596615 540.2554811502183) rotate(321.49664303947645)"><path class="outline" fill="#A5ABB6" stroke="none" d="M 25 0.5 L 60.06877407282157 0.5 L 60.06877407282157 -0.5 L 25 -0.5 Z M 94.51408657282157 0.5 L 129.58286064564314 0.5 L 129.58286064564314 3.5 L 136.58286064564314 0 L 129.58286064564314 -3.5 L 129.58286064564314 -0.5 L 94.51408657282157 -0.5 Z"/><text text-anchor="middle" pointer-events="none" font-size="8px" fill="#000000" x="77.29143032282157" y="3" font-family="sans-serif">ORIGIN</text></g><g class="relationship" transform="translate(-171.99174675596615 540.2554811502183) rotate(456.42604414812234)"><path class="outline" fill="#A5ABB6" stroke="none" d="M 25 0.5 L 35.57017760266238 0.5 L 35.57017760266238 -0.5 L 25 -0.5 Z M 94.75767760266238 0.5 L 105.32785520532477 0.5 L 105.32785520532477 3.5 L 112.32785520532477 0 L 105.32785520532477 -3.5 L 105.32785520532477 -0.5 L 94.75767760266238 -0.5 Z"/><text text-anchor="middle" pointer-events="none" font-size="8px" fill="#000000" x="65.16392760266238" y="3" transform="rotate(180 65.16392760266238 0)" font-family="sans-serif">DESTINATION</text></g><g class="relationship" transform="translate(-88.09420004560111 555.2084775371385) rotate(290.21711873415046)"><path class="outline" fill="#A5ABB6" stroke="none" d="M 25 0.5 L 40.84456209802411 0.5 L 40.84456209802411 -0.5 L 25 -0.5 Z M 75.28987459802411 0.5 L 91.13443669604823 0.5 L 91.13443669604823 3.5 L 98.13443669604823 0 L 91.13443669604823 -3.5 L 91.13443669604823 -0.5 L 75.28987459802411 -0.5 Z"/><text text-anchor="middle" pointer-events="none" font-size="8px" fill="#000000" x="58.06721834802411" y="3" font-family="sans-serif">ORIGIN</text></g><g class="relationship" transform="translate(-88.09420004560111 555.2084775371385) rotate(489.2465673861909)"><path class="outline" fill="#A5ABB6" stroke="none" d="M 25 0.5 L 45.35876484264895 0.5 L 45.35876484264895 -0.5 L 25 -0.5 Z M 104.54626484264895 0.5 L 124.9050296852979 0.5 L 124.9050296852979 3.5 L 131.9050296852979 0 L 124.9050296852979 -3.5 L 124.9050296852979 -0.5 L 104.54626484264895 -0.5 Z"/><text text-anchor="middle" pointer-events="none" font-size="8px" fill="#000000" x="74.95251484264895" y="3" transform="rotate(180 74.95251484264895 0)" font-family="sans-serif">DESTINATION</text></g><g class="relationship" transform="translate(-179.8513191654537 416.0377233088023) rotate(369.9752659508231)"><path class="outline" fill="#A5ABB6" stroke="none" d="M 25 0.5 L 47.46300379599644 0.5 L 47.46300379599644 -0.5 L 25 -0.5 Z M 81.90831629599644 0.5 L 104.37132009199289 0.5 L 104.37132009199289 3.5 L 111.37132009199289 0 L 104.37132009199289 -3.5 L 104.37132009199289 -0.5 L 81.90831629599644 -0.5 Z"/><text text-anchor="middle" pointer-events="none" font-size="8px" fill="#000000" x="64.68566004599644" y="3" font-family="sans-serif">ORIGIN</text></g><g class="relationship" transform="translate(-179.8513191654537 416.0377233088023) rotate(210.3962546037834)"><path class="outline" fill="#A5ABB6" stroke="none" d="M 25 0.5 L 51.90779085764767 0.5 L 51.90779085764767 -0.5 L 25 -0.5 Z M 111.09529085764767 0.5 L 138.00308171529534 0.5 L 138.00308171529534 3.5 L 145.00308171529534 0 L 138.00308171529534 -3.5 L 138.00308171529534 -0.5 L 111.09529085764767 -0.5 Z"/><text text-anchor="middle" pointer-events="none" font-size="8px" fill="#000000" x="81.50154085764767" y="3" transform="rotate(180 81.50154085764767 0)" font-family="sans-serif">DESTINATION</text></g><g class="relationship" transform="translate(53.2545333315818 560.1423323007532) rotate(230.64798997220328)"><path class="outline" fill="#A5ABB6" stroke="none" d="M 25 0.5 L 57.18204968993959 0.5 L 57.18204968993959 -0.5 L 25 -0.5 Z M 91.62736218993959 0.5 L 123.80941187987918 0.5 L 123.80941187987918 3.5 L 130.80941187987918 0 L 123.80941187987918 -3.5 L 123.80941187987918 -0.5 L 91.62736218993959 -0.5 Z"/><text text-anchor="middle" pointer-events="none" font-size="8px" fill="#000000" x="74.40470593993959" y="3" transform="rotate(180 74.40470593993959 0)" font-family="sans-serif">ORIGIN</text></g><g class="relationship" transform="translate(53.2545333315818 560.1423323007532) rotate(424.26247270253504)"><path class="outline" fill="#A5ABB6" stroke="none" d="M 25 0.5 L 39.32640923004608 0.5 L 39.32640923004608 -0.5 L 25 -0.5 Z M 98.51390923004608 0.5 L 112.84031846009216 0.5 L 112.84031846009216 3.5 L 119.84031846009216 0 L 112.84031846009216 -3.5 L 112.84031846009216 -0.5 L 98.51390923004608 -0.5 Z"/><text text-anchor="middle" pointer-events="none" font-size="8px" fill="#000000" x="68.92015923004608" y="3" font-family="sans-serif">DESTINATION</text></g><g class="relationship" transform="translate(-161.2554789255732 297.72077711323624) rotate(410.811931096632)"><path class="outline" fill="#A5ABB6" stroke="none" d="M 25 0.5 L 70.8422896589719 0.5 L 70.8422896589719 -0.5 L 25 -0.5 Z M 105.2876021589719 0.5 L 151.1298918179438 0.5 L 151.1298918179438 3.5 L 158.1298918179438 0 L 151.1298918179438 -3.5 L 151.1298918179438 -0.5 L 105.2876021589719 -0.5 Z"/><text text-anchor="middle" pointer-events="none" font-size="8px" fill="#000000" x="88.0649459089719" y="3" font-family="sans-serif">ORIGIN</text></g><g class="relationship" transform="translate(-161.2554789255732 297.72077711323624) rotate(528.9393692633466)"><path class="outline" fill="#A5ABB6" stroke="none" d="M 25 0.5 L 51.08562827239801 0.5 L 51.08562827239801 -0.5 L 25 -0.5 Z M 110.27312827239801 0.5 L 136.35875654479602 0.5 L 136.35875654479602 3.5 L 143.35875654479602 0 L 136.35875654479602 -3.5 L 136.35875654479602 -0.5 L 110.27312827239801 -0.5 Z"/><text text-anchor="middle" pointer-events="none" font-size="8px" fill="#000000" x="80.67937827239801" y="3" transform="rotate(180 80.67937827239801 0)" font-family="sans-serif">DESTINATION</text></g><g class="relationship" transform="translate(-217.03078628747485 319.17607582247825) rotate(395.09097839463766)"><path class="outline" fill="#A5ABB6" stroke="none" d="M 25 0.5 L 84.06882249072814 0.5 L 84.06882249072814 -0.5 L 25 -0.5 Z M 118.51413499072814 0.5 L 177.58295748145628 0.5 L 177.58295748145628 3.5 L 184.58295748145628 0 L 177.58295748145628 -3.5 L 177.58295748145628 -0.5 L 118.51413499072814 -0.5 Z"/><text text-anchor="middle" pointer-events="none" font-size="8px" fill="#000000" x="101.29147874072814" y="3" font-family="sans-serif">ORIGIN</text></g><g class="relationship" transform="translate(-217.03078628747485 319.17607582247825) rotate(534.3421101828307)"><path class="outline" fill="#A5ABB6" stroke="none" d="M 25 0.5 L 25.013571204786842 0.5 L 25.013571204786842 -0.5 L 25 -0.5 Z M 77.97841495478684 0.5 L 77.99198615957368 0.5 L 77.99198615957368 3.5 L 84.99198615957368 0 L 77.99198615957368 -3.5 L 77.99198615957368 -0.5 L 77.97841495478684 -0.5 Z"/><text text-anchor="middle" pointer-events="none" font-size="8px" fill="#000000" x="51.49599307978684" y="3" transform="rotate(180 51.49599307978684 0)" font-family="sans-serif">DESTINAT…</text></g><g class="relationship" transform="translate(-215.824171297514 463.94246320657766) rotate(351.88440641826764)"><path class="outline" fill="#A5ABB6" stroke="none" d="M 25 0.5 L 65.27993399204176 0.5 L 65.27993399204176 -0.5 L 25 -0.5 Z M 99.72524649204176 0.5 L 140.00518048408352 0.5 L 140.00518048408352 3.5 L 147.00518048408352 0 L 140.00518048408352 -3.5 L 140.00518048408352 -0.5 L 99.72524649204176 -0.5 Z"/><text text-anchor="middle" pointer-events="none" font-size="8px" fill="#000000" x="82.50259024204176" y="3" font-family="sans-serif">ORIGIN</text></g><g class="relationship" transform="translate(-215.824171297514 463.94246320657766) rotate(230.4324090254703)"><path class="outline" fill="#A5ABB6" stroke="none" d="M 25 0.5 L 53.770322764467494 0.5 L 53.770322764467494 -0.5 L 25 -0.5 Z M 112.9578227644675 0.5 L 141.728145528935 0.5 L 141.728145528935 3.5 L 148.728145528935 0 L 141.728145528935 -3.5 L 141.728145528935 -0.5 L 112.9578227644675 -0.5 Z"/><text text-anchor="middle" pointer-events="none" font-size="8px" fill="#000000" x="83.3640727644675" y="3" transform="rotate(180 83.3640727644675 0)" font-family="sans-serif">DESTINATION</text></g><g class="relationship" transform="translate(-73.9355159351351 613.3901448936441) rotate(279.28220531860416)"><path class="outline" fill="#A5ABB6" stroke="none" d="M 25 0.5 L 67.29474015260762 0.5 L 67.29474015260762 -0.5 L 25 -0.5 Z M 101.74005265260762 0.5 L 144.03479280521523 0.5 L 144.03479280521523 3.5 L 151.03479280521523 0 L 144.03479280521523 -3.5 L 144.03479280521523 -0.5 L 101.74005265260762 -0.5 Z"/><text text-anchor="middle" pointer-events="none" font-size="8px" fill="#000000" x="84.51739640260762" y="3" font-family="sans-serif">ORIGIN</text></g><g class="relationship" transform="translate(-73.9355159351351 613.3901448936441) rotate(510.82359951101205)"><path class="outline" fill="#A5ABB6" stroke="none" d="M 25 0.5 L 31.860477327914325 0.5 L 31.860477327914325 -0.5 L 25 -0.5 Z M 91.04797732791432 0.5 L 97.90845465582865 0.5 L 97.90845465582865 3.5 L 104.90845465582865 0 L 97.90845465582865 -3.5 L 97.90845465582865 -0.5 L 91.04797732791432 -0.5 Z"/><text text-anchor="middle" pointer-events="none" font-size="8px" fill="#000000" x="61.454227327914325" y="3" transform="rotate(180 61.454227327914325 0)" font-family="sans-serif">DESTINATION</text></g><g class="relationship" transform="translate(164.6694648432071 433.03503333318) rotate(538.1947733109142)"><path class="outline" fill="#A5ABB6" stroke="none" d="M 25 0.5 L 84.43505473769162 0.5 L 84.43505473769162 -0.5 L 25 -0.5 Z M 118.88036723769162 0.5 L 178.31542197538323 0.5 L 178.31542197538323 3.5 L 185.31542197538323 0 L 178.31542197538323 -3.5 L 178.31542197538323 -0.5 L 118.88036723769162 -0.5 Z"/><text text-anchor="middle" pointer-events="none" font-size="8px" fill="#000000" x="101.65771098769162" y="3" transform="rotate(180 101.65771098769162 0)" font-family="sans-serif">ORIGIN</text></g><g class="relationship" transform="translate(164.6694648432071 433.03503333318) rotate(360.0399507109022)"><path class="outline" fill="#A5ABB6" stroke="none" d="M 25 0.5 L 25.744959088178206 0.5 L 25.744959088178206 -0.5 L 25 -0.5 Z M 78.7098028381782 0.5 L 79.45476192635641 0.5 L 79.45476192635641 3.5 L 86.45476192635641 0 L 79.45476192635641 -3.5 L 79.45476192635641 -0.5 L 78.7098028381782 -0.5 Z"/><text text-anchor="middle" pointer-events="none" font-size="8px" fill="#000000" x="52.227380963178206" y="3" font-family="sans-serif">DESTINAT…</text></g></g><g class="layer nodes"><g class="node" transform="translate(170.60049019374912,-306.17543393737316)"><circle class="outline" cx="0" cy="0" r="25" fill="#ECB5C9" stroke="#da7298" stroke-width="2px"/><text text-anchor="middle" pointer-events="none" font-family="sans-serif" dy="1.5625" font-size="25" fill="#2A2C34"/><text text-anchor="middle" pointer-events="none" x="0" y="5" font-size="10px" fill="#2A2C34" font-family="sans-serif"> LAX</text></g><g class="node" transform="translate(262.39939688451057,-6.9438369998180045)"><circle class="outline" cx="0" cy="0" r="25" fill="#ECB5C9" stroke="#da7298" stroke-width="2px"/><text text-anchor="middle" pointer-events="none" font-family="sans-serif" dy="1.5625" font-size="25" fill="#2A2C34"/><text text-anchor="middle" pointer-events="none" x="0" y="5" font-size="10px" fill="#2A2C34" font-family="sans-serif"> LAS</text></g><g class="node" transform="translate(428.34132418477395,-413.9368478402938)"><circle class="outline" cx="0" cy="0" r="25" fill="#ECB5C9" stroke="#da7298" stroke-width="2px"/><text text-anchor="middle" pointer-events="none" font-family="sans-serif" dy="1.5625" font-size="25" fill="#2A2C34"/><text text-anchor="middle" pointer-events="none" x="0" y="5" font-size="10px" fill="#2A2C34" font-family="sans-serif"> ABQ</text></g><g class="node" transform="translate(429.0702413953338,-100.86420241750828)"><circle class="outline" cx="0" cy="0" r="25" fill="#ECB5C9" stroke="#da7298" stroke-width="2px"/><text text-anchor="middle" pointer-events="none" font-family="sans-serif" dy="1.5625" font-size="25" fill="#2A2C34"/><text text-anchor="middle" pointer-events="none" x="0" y="5" font-size="10px" fill="#2A2C34" font-family="sans-serif"> IAH</text></g><g class="node" transform="translate(376.9269814275622,-18.489780165935816)"><circle class="outline" cx="0" cy="0" r="25" fill="#ECB5C9" stroke="#da7298" stroke-width="2px"/><text text-anchor="middle" pointer-events="none" font-family="sans-serif" dy="1.5625" font-size="25" fill="#2A2C34"/><text text-anchor="middle" pointer-events="none" x="0" y="5" font-size="10px" fill="#2A2C34" font-family="sans-serif"> EWR</text></g><g class="node" transform="translate(-138.26592018306624,-271.07919560008963)"><circle class="outline" cx="0" cy="0" r="25" fill="#ECB5C9" stroke="#da7298" stroke-width="2px"/><text text-anchor="middle" pointer-events="none" font-family="sans-serif" dy="1.5625" font-size="25" fill="#2A2C34"/><text text-anchor="middle" pointer-events="none" x="0" y="5" font-size="10px" fill="#2A2C34" font-family="sans-serif"> FAT</text></g><g class="node" transform="translate(-22.069294355122622,-514.3339217015646)"><circle class="outline" cx="0" cy="0" r="25" fill="#ECB5C9" stroke="#da7298" stroke-width="2px"/><text text-anchor="middle" pointer-events="none" font-family="sans-serif" dy="1.5625" font-size="25" fill="#2A2C34"/><text text-anchor="middle" pointer-events="none" x="0" y="5" font-size="10px" fill="#2A2C34" font-family="sans-serif"> SMF</text></g><g class="node" transform="translate(507.7483349766828,-162.00157653336663)"><circle class="outline" cx="0" cy="0" r="25" fill="#ECB5C9" stroke="#da7298" stroke-width="2px"/><text text-anchor="middle" pointer-events="none" font-family="sans-serif" dy="1.5625" font-size="25" fill="#2A2C34"/><text text-anchor="middle" pointer-events="none" x="0" y="5" font-size="10px" fill="#2A2C34" font-family="sans-serif"> BOS</text></g><g class="node" transform="translate(9.93836347332594,-79.44245716008861)"><circle class="outline" cx="0" cy="0" r="25" fill="#ECB5C9" stroke="#da7298" stroke-width="2px"/><text text-anchor="middle" pointer-events="none" font-family="sans-serif" dy="1.5625" font-size="25" fill="#2A2C34"/><text text-anchor="middle" pointer-events="none" x="0" y="5" font-size="10px" fill="#2A2C34" font-family="sans-serif"> TUS</text></g><g class="node" transform="translate(-45.541575658687655,439.66037647857775)"><circle class="outline" cx="0" cy="0" r="25" fill="#ECB5C9" stroke="#da7298" stroke-width="2px"/><text text-anchor="middle" pointer-events="none" font-family="sans-serif" dy="1.5625" font-size="25" fill="#2A2C34"/><text text-anchor="middle" pointer-events="none" x="0" y="5" font-size="10px" fill="#2A2C34" font-family="sans-serif"> LAX</text></g><g class="node" transform="translate(192.6329534028443,266.04621638820186)"><circle class="outline" cx="0" cy="0" r="25" fill="#ECB5C9" stroke="#da7298" stroke-width="2px"/><text text-anchor="middle" pointer-events="none" font-family="sans-serif" dy="1.5625" font-size="25" fill="#2A2C34"/><text text-anchor="middle" pointer-events="none" x="0" y="5" font-size="10px" fill="#2A2C34" font-family="sans-serif"> TUS</text></g><g class="node" transform="translate(276.12419967561044,433.1127475496446)"><circle class="outline" cx="0" cy="0" r="25" fill="#ECB5C9" stroke="#da7298" stroke-width="2px"/><text text-anchor="middle" pointer-events="none" font-family="sans-serif" dy="1.5625" font-size="25" fill="#2A2C34"/><text text-anchor="middle" pointer-events="none" x="0" y="5" font-size="10px" fill="#2A2C34" font-family="sans-serif"> SMF</text></g><g class="node" transform="translate(-326.486924200144,330.02000926798576)"><circle class="outline" cx="0" cy="0" r="25" fill="#ECB5C9" stroke="#da7298" stroke-width="2px"/><text text-anchor="middle" pointer-events="none" font-family="sans-serif" dy="1.5625" font-size="25" fill="#2A2C34"/><text text-anchor="middle" pointer-events="none" x="0" y="5" font-size="10px" fill="#2A2C34" font-family="sans-serif"> ABQ</text></g><g class="node" transform="translate(-187.36156874692063,676.7205257120438)"><circle class="outline" cx="0" cy="0" r="25" fill="#ECB5C9" stroke="#da7298" stroke-width="2px"/><text text-anchor="middle" pointer-events="none" font-family="sans-serif" dy="1.5625" font-size="25" fill="#2A2C34"/><text text-anchor="middle" pointer-events="none" x="0" y="5" font-size="10px" fill="#2A2C34" font-family="sans-serif"> FAT</text></g><g class="node" transform="translate(-204.51551892414096,150.72754284055236)"><circle class="outline" cx="0" cy="0" r="25" fill="#ECB5C9" stroke="#da7298" stroke-width="2px"/><text text-anchor="middle" pointer-events="none" font-family="sans-serif" dy="1.5625" font-size="25" fill="#2A2C34"/><text text-anchor="middle" pointer-events="none" x="0" y="5" font-size="10px" fill="#2A2C34" font-family="sans-serif"> BOS</text></g><g class="node" transform="translate(268.01808818878857,604.8777065265194)"><circle class="outline" cx="0" cy="0" r="25" fill="#ECB5C9" stroke="#da7298" stroke-width="2px"/><text text-anchor="middle" pointer-events="none" font-family="sans-serif" dy="1.5625" font-size="25" fill="#2A2C34"/><text text-anchor="middle" pointer-events="none" x="0" y="5" font-size="10px" fill="#2A2C34" font-family="sans-serif"> IAH</text></g><g class="node" transform="translate(-44.71166901086572,149.9863890822123)"><circle class="outline" cx="0" cy="0" r="25" fill="#ECB5C9" stroke="#da7298" stroke-width="2px"/><text text-anchor="middle" pointer-events="none" font-family="sans-serif" dy="1.5625" font-size="25" fill="#2A2C34"/><text text-anchor="middle" pointer-events="none" x="0" y="5" font-size="10px" fill="#2A2C34" font-family="sans-serif"> LAS</text></g><g class="node" transform="translate(116.15132203680673,690.6134471966994)"><circle class="outline" cx="0" cy="0" r="25" fill="#ECB5C9" stroke="#da7298" stroke-width="2px"/><text text-anchor="middle" pointer-events="none" font-family="sans-serif" dy="1.5625" font-size="25" fill="#2A2C34"/><text text-anchor="middle" pointer-events="none" x="0" y="5" font-size="10px" fill="#2A2C34" font-family="sans-serif"> EWR</text></g><g class="node" transform="translate(192.15216608223417,-149.2472995392514)"><circle class="outline" cx="0" cy="0" r="25" fill="#4C8EDA" stroke="#2870c2" stroke-width="2px"/><text text-anchor="middle" pointer-events="none" font-family="sans-serif" dy="1.5625" font-size="25" fill="#FFFFFF"/><text text-anchor="middle" pointer-events="none" x="0" y="5" font-size="10px" fill="#FFFFFF" font-family="sans-serif"> 11/29/20…</text></g><g class="node" transform="translate(284.6903106426881,-359.0120767648932)"><circle class="outline" cx="0" cy="0" r="25" fill="#4C8EDA" stroke="#2870c2" stroke-width="2px"/><text text-anchor="middle" pointer-events="none" font-family="sans-serif" dy="1.5625" font-size="25" fill="#FFFFFF"/><text text-anchor="middle" pointer-events="none" x="0" y="5" font-size="10px" fill="#FFFFFF" font-family="sans-serif"> 11/3/2015</text></g><g class="node" transform="translate(258.28294952552096,-412.77775221731736)"><circle class="outline" cx="0" cy="0" r="25" fill="#4C8EDA" stroke="#2870c2" stroke-width="2px"/><text text-anchor="middle" pointer-events="none" font-family="sans-serif" dy="1.5625" font-size="25" fill="#FFFFFF"/><text text-anchor="middle" pointer-events="none" x="0" y="5" font-size="10px" fill="#FFFFFF" font-family="sans-serif"> 11/1/2015</text></g><g class="node" transform="translate(285.187909905365,-200.31686354790307)"><circle class="outline" cx="0" cy="0" r="25" fill="#4C8EDA" stroke="#2870c2" stroke-width="2px"/><text text-anchor="middle" pointer-events="none" font-family="sans-serif" dy="1.5625" font-size="25" fill="#FFFFFF"/><text text-anchor="middle" pointer-events="none" x="0" y="5" font-size="10px" fill="#FFFFFF" font-family="sans-serif"> 11/30/20…</text></g><g class="node" transform="translate(318.01878029693876,-408.76045024361457)"><circle class="outline" cx="0" cy="0" r="25" fill="#4C8EDA" stroke="#2870c2" stroke-width="2px"/><text text-anchor="middle" pointer-events="none" font-family="sans-serif" dy="1.5625" font-size="25" fill="#FFFFFF"/><text text-anchor="middle" pointer-events="none" x="0" y="5" font-size="10px" fill="#FFFFFF" font-family="sans-serif"> 11/4/2015</text></g><g class="node" transform="translate(256.81350004332415,-147.48621210256553)"><circle class="outline" cx="0" cy="0" r="25" fill="#4C8EDA" stroke="#2870c2" stroke-width="2px"/><text text-anchor="middle" pointer-events="none" font-family="sans-serif" dy="1.5625" font-size="25" fill="#FFFFFF"/><text text-anchor="middle" pointer-events="none" x="0" y="5" font-size="10px" fill="#FFFFFF" font-family="sans-serif"> 11/29/20…</text></g><g class="node" transform="translate(-12.326429323692643,-334.48666056479175)"><circle class="outline" cx="0" cy="0" r="25" fill="#4C8EDA" stroke="#2870c2" stroke-width="2px"/><text text-anchor="middle" pointer-events="none" font-family="sans-serif" dy="1.5625" font-size="25" fill="#FFFFFF"/><text text-anchor="middle" pointer-events="none" x="0" y="5" font-size="10px" fill="#FFFFFF" font-family="sans-serif"> 11/2/2015</text></g><g class="node" transform="translate(122.11912875341666,-463.1954239325739)"><circle class="outline" cx="0" cy="0" r="25" fill="#4C8EDA" stroke="#2870c2" stroke-width="2px"/><text text-anchor="middle" pointer-events="none" font-family="sans-serif" dy="1.5625" font-size="25" fill="#FFFFFF"/><text text-anchor="middle" pointer-events="none" x="0" y="5" font-size="10px" fill="#FFFFFF" font-family="sans-serif"> 11/3/2015</text></g><g class="node" transform="translate(340.9094699315056,-222.56719612906863)"><circle class="outline" cx="0" cy="0" r="25" fill="#4C8EDA" stroke="#2870c2" stroke-width="2px"/><text text-anchor="middle" pointer-events="none" font-family="sans-serif" dy="1.5625" font-size="25" fill="#FFFFFF"/><text text-anchor="middle" pointer-events="none" x="0" y="5" font-size="10px" fill="#FFFFFF" font-family="sans-serif"> 11/29/20…</text></g><g class="node" transform="translate(291.62094943309694,-462.48872864218026)"><circle class="outline" cx="0" cy="0" r="25" fill="#4C8EDA" stroke="#2870c2" stroke-width="2px"/><text text-anchor="middle" pointer-events="none" font-family="sans-serif" dy="1.5625" font-size="25" fill="#FFFFFF"/><text text-anchor="middle" pointer-events="none" x="0" y="5" font-size="10px" fill="#FFFFFF" font-family="sans-serif"> 11/2/2015</text></g><g class="node" transform="translate(-30.60436157812323,-277.37576483577357)"><circle class="outline" cx="0" cy="0" r="25" fill="#4C8EDA" stroke="#2870c2" stroke-width="2px"/><text text-anchor="middle" pointer-events="none" font-family="sans-serif" dy="1.5625" font-size="25" fill="#FFFFFF"/><text text-anchor="middle" pointer-events="none" x="0" y="5" font-size="10px" fill="#FFFFFF" font-family="sans-serif"> 11/3/2015</text></g><g class="node" transform="translate(62.527375039918894,-457.0479492876567)"><circle class="outline" cx="0" cy="0" r="25" fill="#4C8EDA" stroke="#2870c2" stroke-width="2px"/><text text-anchor="middle" pointer-events="none" font-family="sans-serif" dy="1.5625" font-size="25" fill="#FFFFFF"/><text text-anchor="middle" pointer-events="none" x="0" y="5" font-size="10px" fill="#FFFFFF" font-family="sans-serif"> 11/1/2015</text></g><g class="node" transform="translate(311.1115369539418,-305.18981501565594)"><circle class="outline" cx="0" cy="0" r="25" fill="#4C8EDA" stroke="#2870c2" stroke-width="2px"/><text text-anchor="middle" pointer-events="none" font-family="sans-serif" dy="1.5625" font-size="25" fill="#FFFFFF"/><text text-anchor="middle" pointer-events="none" x="0" y="5" font-size="10px" fill="#FFFFFF" font-family="sans-serif"> 11/2/2015</text></g><g class="node" transform="translate(70.73146552103606,-194.8104968792592)"><circle class="outline" cx="0" cy="0" r="25" fill="#4C8EDA" stroke="#2870c2" stroke-width="2px"/><text text-anchor="middle" pointer-events="none" font-family="sans-serif" dy="1.5625" font-size="25" fill="#FFFFFF"/><text text-anchor="middle" pointer-events="none" x="0" y="5" font-size="10px" fill="#FFFFFF" font-family="sans-serif"> 11/2/2015</text></g><g class="node" transform="translate(119.30209499378321,-159.68985516039209)"><circle class="outline" cx="0" cy="0" r="25" fill="#4C8EDA" stroke="#2870c2" stroke-width="2px"/><text text-anchor="middle" pointer-events="none" font-family="sans-serif" dy="1.5625" font-size="25" fill="#FFFFFF"/><text text-anchor="middle" pointer-events="none" x="0" y="5" font-size="10px" fill="#FFFFFF" font-family="sans-serif"> 11/1/2015</text></g><g class="node" transform="translate(344.4512029168319,-354.9350521976015)"><circle class="outline" cx="0" cy="0" r="25" fill="#4C8EDA" stroke="#2870c2" stroke-width="2px"/><text text-anchor="middle" pointer-events="none" font-family="sans-serif" dy="1.5625" font-size="25" fill="#FFFFFF"/><text text-anchor="middle" pointer-events="none" x="0" y="5" font-size="10px" fill="#FFFFFF" font-family="sans-serif"> 11/3/2015</text></g><g class="node" transform="translate(87.08617057633573,-402.5220458794659)"><circle class="outline" cx="0" cy="0" r="25" fill="#4C8EDA" stroke="#2870c2" stroke-width="2px"/><text text-anchor="middle" pointer-events="none" font-family="sans-serif" dy="1.5625" font-size="25" fill="#FFFFFF"/><text text-anchor="middle" pointer-events="none" x="0" y="5" font-size="10px" fill="#FFFFFF" font-family="sans-serif"> 11/4/2015</text></g><g class="node" transform="translate(27.208332023766992,-400.2425448824519)"><circle class="outline" cx="0" cy="0" r="25" fill="#4C8EDA" stroke="#2870c2" stroke-width="2px"/><text text-anchor="middle" pointer-events="none" font-family="sans-serif" dy="1.5625" font-size="25" fill="#FFFFFF"/><text text-anchor="middle" pointer-events="none" x="0" y="5" font-size="10px" fill="#FFFFFF" font-family="sans-serif"> 11/2/2015</text></g><g class="node" transform="translate(370.8617507871915,-301.12471960079864)"><circle class="outline" cx="0" cy="0" r="25" fill="#4C8EDA" stroke="#2870c2" stroke-width="2px"/><text text-anchor="middle" pointer-events="none" font-family="sans-serif" dy="1.5625" font-size="25" fill="#FFFFFF"/><text text-anchor="middle" pointer-events="none" x="0" y="5" font-size="10px" fill="#FFFFFF" font-family="sans-serif"> 11/1/2015</text></g><g class="node" transform="translate(27.872251995305348,-289.9661314435268)"><circle class="outline" cx="0" cy="0" r="25" fill="#4C8EDA" stroke="#2870c2" stroke-width="2px"/><text text-anchor="middle" pointer-events="none" font-family="sans-serif" dy="1.5625" font-size="25" fill="#FFFFFF"/><text text-anchor="middle" pointer-events="none" x="0" y="5" font-size="10px" fill="#FFFFFF" font-family="sans-serif"> 11/1/2015</text></g><g class="node" transform="translate(8.407926093563415,-231.93391996121923)"><circle class="outline" cx="0" cy="0" r="25" fill="#4C8EDA" stroke="#2870c2" stroke-width="2px"/><text text-anchor="middle" pointer-events="none" font-family="sans-serif" dy="1.5625" font-size="25" fill="#FFFFFF"/><text text-anchor="middle" pointer-events="none" x="0" y="5" font-size="10px" fill="#FFFFFF" font-family="sans-serif"> 11/4/2015</text></g><g class="node" transform="translate(49.81167924494021,302.85574151279883)"><circle class="outline" cx="0" cy="0" r="25" fill="#4C8EDA" stroke="#2870c2" stroke-width="2px"/><text text-anchor="middle" pointer-events="none" font-family="sans-serif" dy="1.5625" font-size="25" fill="#FFFFFF"/><text text-anchor="middle" pointer-events="none" x="0" y="5" font-size="10px" fill="#FFFFFF" font-family="sans-serif"> 11/2/2015</text></g><g class="node" transform="translate(138.61728557379905,486.97265058826434)"><circle class="outline" cx="0" cy="0" r="25" fill="#4C8EDA" stroke="#2870c2" stroke-width="2px"/><text text-anchor="middle" pointer-events="none" font-family="sans-serif" dy="1.5625" font-size="25" fill="#FFFFFF"/><text text-anchor="middle" pointer-events="none" x="0" y="5" font-size="10px" fill="#FFFFFF" font-family="sans-serif"> 11/1/2015</text></g><g class="node" transform="translate(-226.3729445473569,378.43695418434913)"><circle class="outline" cx="0" cy="0" r="25" fill="#4C8EDA" stroke="#2870c2" stroke-width="2px"/><text text-anchor="middle" pointer-events="none" font-family="sans-serif" dy="1.5625" font-size="25" fill="#FFFFFF"/><text text-anchor="middle" pointer-events="none" x="0" y="5" font-size="10px" fill="#FFFFFF" font-family="sans-serif"> 11/3/2015</text></g><g class="node" transform="translate(-137.3604095318606,589.1286397642776)"><circle class="outline" cx="0" cy="0" r="25" fill="#4C8EDA" stroke="#2870c2" stroke-width="2px"/><text text-anchor="middle" pointer-events="none" font-family="sans-serif" dy="1.5625" font-size="25" fill="#FFFFFF"/><text text-anchor="middle" pointer-events="none" x="0" y="5" font-size="10px" fill="#FFFFFF" font-family="sans-serif"> 11/3/2015</text></g><g class="node" transform="translate(104.98241427854596,437.3347359664666)"><circle class="outline" cx="0" cy="0" r="25" fill="#4C8EDA" stroke="#2870c2" stroke-width="2px"/><text text-anchor="middle" pointer-events="none" font-family="sans-serif" dy="1.5625" font-size="25" fill="#FFFFFF"/><text text-anchor="middle" pointer-events="none" x="0" y="5" font-size="10px" fill="#FFFFFF" font-family="sans-serif"> 11/4/2015</text></g><g class="node" transform="translate(-93.37080556242834,282.94243229543133)"><circle class="outline" cx="0" cy="0" r="25" fill="#4C8EDA" stroke="#2870c2" stroke-width="2px"/><text text-anchor="middle" pointer-events="none" font-family="sans-serif" dy="1.5625" font-size="25" fill="#FFFFFF"/><text text-anchor="middle" pointer-events="none" x="0" y="5" font-size="10px" fill="#FFFFFF" font-family="sans-serif"> 11/29/20…</text></g><g class="node" transform="translate(78.67159783655937,355.3328247504296)"><circle class="outline" cx="0" cy="0" r="25" fill="#4C8EDA" stroke="#2870c2" stroke-width="2px"/><text text-anchor="middle" pointer-events="none" font-family="sans-serif" dy="1.5625" font-size="25" fill="#FFFFFF"/><text text-anchor="middle" pointer-events="none" x="0" y="5" font-size="10px" fill="#FFFFFF" font-family="sans-serif"> 11/1/2015</text></g><g class="node" transform="translate(109.59940592988055,539.5171240335297)"><circle class="outline" cx="0" cy="0" r="25" fill="#4C8EDA" stroke="#2870c2" stroke-width="2px"/><text text-anchor="middle" pointer-events="none" font-family="sans-serif" dy="1.5625" font-size="25" fill="#FFFFFF"/><text text-anchor="middle" pointer-events="none" x="0" y="5" font-size="10px" fill="#FFFFFF" font-family="sans-serif"> 11/30/20…</text></g><g class="node" transform="translate(132.0466736159546,382.8248585567168)"><circle class="outline" cx="0" cy="0" r="25" fill="#4C8EDA" stroke="#2870c2" stroke-width="2px"/><text text-anchor="middle" pointer-events="none" font-family="sans-serif" dy="1.5625" font-size="25" fill="#FFFFFF"/><text text-anchor="middle" pointer-events="none" x="0" y="5" font-size="10px" fill="#FFFFFF" font-family="sans-serif"> 11/3/2015</text></g><g class="node" transform="translate(-262.2523523831893,426.3260607245632)"><circle class="outline" cx="0" cy="0" r="25" fill="#4C8EDA" stroke="#2870c2" stroke-width="2px"/><text text-anchor="middle" pointer-events="none" font-family="sans-serif" dy="1.5625" font-size="25" fill="#FFFFFF"/><text text-anchor="middle" pointer-events="none" x="0" y="5" font-size="10px" fill="#FFFFFF" font-family="sans-serif"> 11/2/2015</text></g><g class="node" transform="translate(-26.126552390970218,296.8527698832269)"><circle class="outline" cx="0" cy="0" r="25" fill="#4C8EDA" stroke="#2870c2" stroke-width="2px"/><text text-anchor="middle" pointer-events="none" font-family="sans-serif" dy="1.5625" font-size="25" fill="#FFFFFF"/><text text-anchor="middle" pointer-events="none" x="0" y="5" font-size="10px" fill="#FFFFFF" font-family="sans-serif"> 11/29/20…</text></g><g class="node" transform="translate(-170.4447831337311,356.9111161400087)"><circle class="outline" cx="0" cy="0" r="25" fill="#4C8EDA" stroke="#2870c2" stroke-width="2px"/><text text-anchor="middle" pointer-events="none" font-family="sans-serif" dy="1.5625" font-size="25" fill="#FFFFFF"/><text text-anchor="middle" pointer-events="none" x="0" y="5" font-size="10px" fill="#FFFFFF" font-family="sans-serif"> 11/2/2015</text></g><g class="node" transform="translate(10.171405076771608,601.7712857875736)"><circle class="outline" cx="0" cy="0" r="25" fill="#4C8EDA" stroke="#2870c2" stroke-width="2px"/><text text-anchor="middle" pointer-events="none" font-family="sans-serif" dy="1.5625" font-size="25" fill="#FFFFFF"/><text text-anchor="middle" pointer-events="none" x="0" y="5" font-size="10px" fill="#FFFFFF" font-family="sans-serif"> 11/29/20…</text></g><g class="node" transform="translate(-171.99174675596615,540.2554811502183)"><circle class="outline" cx="0" cy="0" r="25" fill="#4C8EDA" stroke="#2870c2" stroke-width="2px"/><text text-anchor="middle" pointer-events="none" font-family="sans-serif" dy="1.5625" font-size="25" fill="#FFFFFF"/><text text-anchor="middle" pointer-events="none" x="0" y="5" font-size="10px" fill="#FFFFFF" font-family="sans-serif"> 11/2/2015</text></g><g class="node" transform="translate(-88.09420004560111,555.2084775371385)"><circle class="outline" cx="0" cy="0" r="25" fill="#4C8EDA" stroke="#2870c2" stroke-width="2px"/><text text-anchor="middle" pointer-events="none" font-family="sans-serif" dy="1.5625" font-size="25" fill="#FFFFFF"/><text text-anchor="middle" pointer-events="none" x="0" y="5" font-size="10px" fill="#FFFFFF" font-family="sans-serif"> 11/4/2015</text></g><g class="node" transform="translate(-179.8513191654537,416.0377233088023)"><circle class="outline" cx="0" cy="0" r="25" fill="#4C8EDA" stroke="#2870c2" stroke-width="2px"/><text text-anchor="middle" pointer-events="none" font-family="sans-serif" dy="1.5625" font-size="25" fill="#FFFFFF"/><text text-anchor="middle" pointer-events="none" x="0" y="5" font-size="10px" fill="#FFFFFF" font-family="sans-serif"> 11/1/2015</text></g><g class="node" transform="translate(53.2545333315818,560.1423323007532)"><circle class="outline" cx="0" cy="0" r="25" fill="#4C8EDA" stroke="#2870c2" stroke-width="2px"/><text text-anchor="middle" pointer-events="none" font-family="sans-serif" dy="1.5625" font-size="25" fill="#FFFFFF"/><text text-anchor="middle" pointer-events="none" x="0" y="5" font-size="10px" fill="#FFFFFF" font-family="sans-serif"> 11/30/20…</text></g><g class="node" transform="translate(-161.2554789255732,297.72077711323624)"><circle class="outline" cx="0" cy="0" r="25" fill="#4C8EDA" stroke="#2870c2" stroke-width="2px"/><text text-anchor="middle" pointer-events="none" font-family="sans-serif" dy="1.5625" font-size="25" fill="#FFFFFF"/><text text-anchor="middle" pointer-events="none" x="0" y="5" font-size="10px" fill="#FFFFFF" font-family="sans-serif"> 11/4/2015</text></g><g class="node" transform="translate(-217.03078628747485,319.17607582247825)"><circle class="outline" cx="0" cy="0" r="25" fill="#4C8EDA" stroke="#2870c2" stroke-width="2px"/><text text-anchor="middle" pointer-events="none" font-family="sans-serif" dy="1.5625" font-size="25" fill="#FFFFFF"/><text text-anchor="middle" pointer-events="none" x="0" y="5" font-size="10px" fill="#FFFFFF" font-family="sans-serif"> 11/3/2015</text></g><g class="node" transform="translate(-215.824171297514,463.94246320657766)"><circle class="outline" cx="0" cy="0" r="25" fill="#4C8EDA" stroke="#2870c2" stroke-width="2px"/><text text-anchor="middle" pointer-events="none" font-family="sans-serif" dy="1.5625" font-size="25" fill="#FFFFFF"/><text text-anchor="middle" pointer-events="none" x="0" y="5" font-size="10px" fill="#FFFFFF" font-family="sans-serif"> 11/1/2015</text></g><g class="node" transform="translate(-73.9355159351351,613.3901448936441)"><circle class="outline" cx="0" cy="0" r="25" fill="#4C8EDA" stroke="#2870c2" stroke-width="2px"/><text text-anchor="middle" pointer-events="none" font-family="sans-serif" dy="1.5625" font-size="25" fill="#FFFFFF"/><text text-anchor="middle" pointer-events="none" x="0" y="5" font-size="10px" fill="#FFFFFF" font-family="sans-serif"> 11/1/2015</text></g><g class="node" transform="translate(164.6694648432071,433.03503333318)"><circle class="outline" cx="0" cy="0" r="25" fill="#4C8EDA" stroke="#2870c2" stroke-width="2px"/><text text-anchor="middle" pointer-events="none" font-family="sans-serif" dy="1.5625" font-size="25" fill="#FFFFFF"/><text text-anchor="middle" pointer-events="none" x="0" y="5" font-size="10px" fill="#FFFFFF" font-family="sans-serif"> 11/2/2015</text></g></g></svg>