<svg xmlns="http://www.w3.org/2000/svg" width="268.80572509765625" height="289.11285400390625" viewBox="-30.969266891479492 -40.30424118041992 268.80572509765625 289.11285400390625"><title>Neo4j Graph Visualization</title><desc>Created using Neo4j (http://www.neo4j.com/)</desc><g class="layer relationships"><g class="relationship" transform="translate(116.54032960583362 -11.30424054608068) rotate(391.63233723439663)"><path class="outline" fill="#A5ABB6" stroke="none" d="M 25 0.5 L 33.47794247610509 0.5 L 33.47794247610509 -0.5 L 25 -0.5 Z M 67.92325497610508 0.5 L 76.40119745221018 0.5 L 76.40119745221018 3.5 L 83.40119745221018 0 L 76.40119745221018 -3.5 L 76.40119745221018 -0.5 L 67.92325497610508 -0.5 Z"/><text text-anchor="middle" pointer-events="none" font-size="8px" fill="#000000" x="50.70059872610509" y="3" font-family="sans-serif">ORIGIN</text></g><g class="relationship" transform="translate(116.54032960583362 -11.30424054608068) rotate(509.83692167448555)"><path class="outline" fill="#A5ABB6" stroke="none" d="M 25 0.5 L 26.04032548573045 0.5 L 26.04032548573045 -0.5 L 25 -0.5 Z M 74.71220048573045 0.5 L 75.7525259714609 0.5 L 75.7525259714609 3.5 L 82.7525259714609 0 L 75.7525259714609 -3.5 L 75.7525259714609 -0.5 L 74.71220048573045 -0.5 Z"/><text text-anchor="middle" pointer-events="none" font-size="8px" fill="#000000" x="50.37626298573045" y="3" transform="rotate(180 50.37626298573045 0)" font-family="sans-serif">DESTINA…</text></g><g class="relationship" transform="translate(-1.969267490531072 147.55353112034456) rotate(283.6069256162524)"><path class="outline" fill="#A5ABB6" stroke="none" d="M 25 0.5 L 33.14740027587401 0.5 L 33.14740027587401 -0.5 L 25 -0.5 Z M 67.59271277587402 0.5 L 75.74011305174803 0.5 L 75.74011305174803 3.5 L 82.74011305174803 0 L 75.74011305174803 -3.5 L 75.74011305174803 -0.5 L 67.59271277587402 -0.5 Z"/><text text-anchor="middle" pointer-events="none" font-size="8px" fill="#000000" x="50.37005652587401" y="3" font-family="sans-serif">ORIGIN</text></g><g class="relationship" transform="translate(-1.969267490531072 147.55353112034456) rotate(401.8098584553316)"><path class="outline" fill="#A5ABB6" stroke="none" d="M 25 0.5 L 26.35588807800133 0.5 L 26.35588807800133 -0.5 L 25 -0.5 Z M 75.02776307800133 0.5 L 76.38365115600266 0.5 L 76.38365115600266 3.5 L 83.38365115600266 0 L 76.38365115600266 -3.5 L 76.38365115600266 -0.5 L 75.02776307800133 -0.5 Z"/><text text-anchor="middle" pointer-events="none" font-size="8px" fill="#000000" x="50.69182557800133" y="3" font-family="sans-serif">DESTINA…</text></g></g><g class="layer nodes"><g class="node" transform="translate(208.83647665026874,45.54855929548447)"><circle class="outline" cx="0" cy="0" r="25" fill="#ECB5C9" stroke="#da7298" stroke-width="2px"/><text text-anchor="middle" pointer-events="none" font-family="sans-serif" dy="1.5625" font-size="25" fill="#2A2C34"/><text text-anchor="middle" pointer-events="none" x="0" y="5" font-size="10px" fill="#2A2C34" font-family="sans-serif"> MSN</text></g><g class="node" transform="translate(78.8157120025789,219.80865499542955)"><circle class="outline" cx="0" cy="0" r="25" fill="#ECB5C9" stroke="#da7298" stroke-width="2px"/><text text-anchor="middle" pointer-events="none" font-family="sans-serif" dy="1.5625" font-size="25" fill="#2A2C34"/><text text-anchor="middle" pointer-events="none" x="0" y="5" font-size="10px" fill="#2A2C34" font-family="sans-serif"> GRR</text></g><g class="node" transform="translate(116.54032960583362,-11.30424054608068)"><circle class="outline" cx="0" cy="0" r="25" fill="#4C8EDA" stroke="#2870c2" stroke-width="2px"/><text text-anchor="middle" pointer-events="none" font-family="sans-serif" dy="1.5625" font-size="25" fill="#FFFFFF"/><text text-anchor="middle" pointer-events="none" x="0" y="5" font-size="10px" fill="#FFFFFF" font-family="sans-serif"> 11/30/20…</text></g><g class="node" transform="translate(23.377628084841433,42.8374060722193)"><circle class="outline" cx="0" cy="0" r="25" fill="#ECB5C9" stroke="#da7298" stroke-width="2px"/><text text-anchor="middle" pointer-events="none" font-family="sans-serif" dy="1.5625" font-size="25" fill="#2A2C34"/><text text-anchor="middle" pointer-events="none" x="0" y="5" font-size="10px" fill="#2A2C34" font-family="sans-serif"> ORD</text></g><g class="node" transform="translate(-1.969267490531072,147.55353112034456)"><circle class="outline" cx="0" cy="0" r="25" fill="#4C8EDA" stroke="#2870c2" stroke-width="2px"/><text text-anchor="middle" pointer-events="none" font-family="sans-serif" dy="1.5625" font-size="25" fill="#FFFFFF"/><text text-anchor="middle" pointer-events="none" x="0" y="5" font-size="10px" fill="#FFFFFF" font-family="sans-serif"> 11/17/20…</text></g></g></svg>