<svg xmlns="http://www.w3.org/2000/svg" width="481.5418395996094" height="483.11279296875" viewBox="-181.4324951171875 -139.58863830566406 481.5418395996094 483.11279296875"><title>Neo4j Graph Visualization</title><desc>Created using Neo4j (http://www.neo4j.com/)</desc><g class="layer relationships"><g class="relationship" transform="translate(46.8232537687207 91.78270221683128) rotate(407.58014738722386)"><path class="outline" fill="#A5ABB6" stroke="none" d="M 25 0.5 L 42.29187564713037 0.5 L 42.29187564713037 -0.5 L 25 -0.5 Z M 87.85437564713037 0.5 L 105.14625129426074 0.5 L 105.14625129426074 3.5 L 112.14625129426074 0 L 105.14625129426074 -3.5 L 105.14625129426074 -0.5 L 87.85437564713037 -0.5 Z"/><text text-anchor="middle" pointer-events="none" font-size="8px" fill="#000000" x="65.07312564713037" y="3" font-family="sans-serif">ACTED_IN</text></g><g class="relationship" transform="translate(46.8232537687207 91.78270221683128) rotate(321.43473371221944)"><path class="outline" fill="#A5ABB6" stroke="none" d="M 25 0.5 L 41.13466869268433 0.5 L 41.13466869268433 -0.5 L 25 -0.5 Z M 86.69716869268433 0.5 L 102.83183738536866 0.5 L 102.83183738536866 3.5 L 109.83183738536866 0 L 102.83183738536866 -3.5 L 102.83183738536866 -0.5 L 86.69716869268433 -0.5 Z"/><text text-anchor="middle" pointer-events="none" font-size="8px" fill="#000000" x="63.91591869268433" y="3" font-family="sans-serif">ACTED_IN</text></g><g class="relationship" transform="translate(46.8232537687207 91.78270221683128) rotate(231.07398977860242)"><path class="outline" fill="#A5ABB6" stroke="none" d="M 25 0.5 L 47.146360925896644 0.5 L 47.146360925896644 -0.5 L 25 -0.5 Z M 92.70886092589664 0.5 L 114.85522185179329 0.5 L 114.85522185179329 3.5 L 121.85522185179329 0 L 114.85522185179329 -3.5 L 114.85522185179329 -0.5 L 92.70886092589664 -0.5 Z"/><text text-anchor="middle" pointer-events="none" font-size="8px" fill="#000000" x="69.92761092589664" y="3" transform="rotate(180 69.92761092589664 0)" font-family="sans-serif">ACTED_IN</text></g><g class="relationship" transform="translate(46.8232537687207 91.78270221683128) rotate(519.2760809970388)"><path class="outline" fill="#A5ABB6" stroke="none" d="M 25 0.5 L 49.28376448597308 0.5 L 49.28376448597308 -0.5 L 25 -0.5 Z M 94.84626448597308 0.5 L 119.13002897194616 0.5 L 119.13002897194616 3.5 L 126.13002897194616 0 L 119.13002897194616 -3.5 L 119.13002897194616 -0.5 L 94.84626448597308 -0.5 Z"/><text text-anchor="middle" pointer-events="none" font-size="8px" fill="#000000" x="72.06501448597308" y="3" transform="rotate(180 72.06501448597308 0)" font-family="sans-serif">ACTED_IN</text></g><g class="relationship" transform="translate(46.8232537687207 91.78270221683128) rotate(498.5818621871122)"><path class="outline" fill="#A5ABB6" stroke="none" d="M 25 0.5 L 30.99937057033486 0.5 L 30.99937057033486 -0.5 L 25 -0.5 Z M 76.56187057033486 0.5 L 82.56124114066972 0.5 L 82.56124114066972 3.5 L 89.56124114066972 0 L 82.56124114066972 -3.5 L 82.56124114066972 -0.5 L 76.56187057033486 -0.5 Z"/><text text-anchor="middle" pointer-events="none" font-size="8px" fill="#000000" x="53.78062057033486" y="3" transform="rotate(180 53.78062057033486 0)" font-family="sans-serif">ACTED_IN</text></g><g class="relationship" transform="translate(222.04670966093266 286.469653425322) rotate(228.48649274196418)"><path class="outline" fill="#A5ABB6" stroke="none" d="M 25 0.5 L 36.11370343814146 0.5 L 36.11370343814146 -0.5 L 25 -0.5 Z M 81.67620343814146 0.5 L 92.78990687628291 0.5 L 92.78990687628291 3.5 L 99.78990687628291 0 L 92.78990687628291 -3.5 L 92.78990687628291 -0.5 L 81.67620343814146 -0.5 Z"/><text text-anchor="middle" pointer-events="none" font-size="8px" fill="#000000" x="58.89495343814146" y="3" transform="rotate(180 58.89495343814146 0)" font-family="sans-serif">ACTED_IN</text></g><g class="relationship" transform="translate(130.55067600511015 314.5241380180446) rotate(274.13597808042164)"><path class="outline" fill="#A5ABB6" stroke="none" d="M 25 0.5 L 34.625922731635505 0.5 L 34.625922731635505 -0.5 L 25 -0.5 Z M 80.18842273163551 0.5 L 89.81434546327101 0.5 L 89.81434546327101 3.5 L 96.81434546327101 0 L 89.81434546327101 -3.5 L 89.81434546327101 -0.5 L 80.18842273163551 -0.5 Z"/><text text-anchor="middle" pointer-events="none" font-size="8px" fill="#000000" x="57.407172731635505" y="3" font-family="sans-serif">ACTED_IN</text></g><g class="relationship" transform="translate(262.2546112198416 205.45042788603922) rotate(185.77130827482534)"><path class="outline" fill="#A5ABB6" stroke="none" d="M 25 0.5 L 35.49097505166882 0.5 L 35.49097505166882 -0.5 L 25 -0.5 Z M 81.05347505166881 0.5 L 91.54445010333764 0.5 L 91.54445010333764 3.5 L 98.54445010333764 0 L 91.54445010333764 -3.5 L 91.54445010333764 -0.5 L 81.05347505166881 -0.5 Z"/><text text-anchor="middle" pointer-events="none" font-size="8px" fill="#000000" x="58.27222505166882" y="3" transform="rotate(180 58.27222505166882 0)" font-family="sans-serif">ACTED_IN</text></g><g class="relationship" transform="translate(265.8683765344323 51.698475675115716) rotate(201.15628494745175)"><path class="outline" fill="#A5ABB6" stroke="none" d="M 25 0.5 L 34.63467048904642 0.5 L 34.63467048904642 -0.5 L 25 -0.5 Z M 80.19717048904641 0.5 L 89.83184097809284 0.5 L 89.83184097809284 3.5 L 96.83184097809284 0 L 89.83184097809284 -3.5 L 89.83184097809284 -0.5 L 80.19717048904641 -0.5 Z"/><text text-anchor="middle" pointer-events="none" font-size="8px" fill="#000000" x="57.41592048904642" y="3" transform="rotate(180 57.41592048904642 0)" font-family="sans-serif">ACTED_IN</text></g><g class="relationship" transform="translate(271.1093328708933 -32.66198382476049) rotate(521.2319403151354)"><path class="outline" fill="#A5ABB6" stroke="none" d="M 25 0.5 L 36.48683825564043 0.5 L 36.48683825564043 -0.5 L 25 -0.5 Z M 82.04933825564044 0.5 L 93.53617651128086 0.5 L 93.53617651128086 3.5 L 100.53617651128086 0 L 93.53617651128086 -3.5 L 93.53617651128086 -0.5 L 82.04933825564044 -0.5 Z"/><text text-anchor="middle" pointer-events="none" font-size="8px" fill="#000000" x="59.26808825564043" y="3" transform="rotate(180 59.26808825564043 0)" font-family="sans-serif">ACTED_IN</text></g><g class="relationship" transform="translate(121.90257255108529 -110.58863132582061) rotate(435.61498858656876)"><path class="outline" fill="#A5ABB6" stroke="none" d="M 25 0.5 L 34.79169575063642 0.5 L 34.79169575063642 -0.5 L 25 -0.5 Z M 80.35419575063642 0.5 L 90.14589150127284 0.5 L 90.14589150127284 3.5 L 97.14589150127284 0 L 90.14589150127284 -3.5 L 90.14589150127284 -0.5 L 80.35419575063642 -0.5 Z"/><text text-anchor="middle" pointer-events="none" font-size="8px" fill="#000000" x="57.57294575063642" y="3" font-family="sans-serif">ACTED_IN</text></g><g class="relationship" transform="translate(213.79083749621705 -99.58266919039313) rotate(479.8343648873615)"><path class="outline" fill="#A5ABB6" stroke="none" d="M 25 0.5 L 35.5714813093922 0.5 L 35.5714813093922 -0.5 L 25 -0.5 Z M 81.1339813093922 0.5 L 91.7054626187844 0.5 L 91.7054626187844 3.5 L 98.7054626187844 0 L 91.7054626187844 -3.5 L 91.7054626187844 -0.5 L 81.1339813093922 -0.5 Z"/><text text-anchor="middle" pointer-events="none" font-size="8px" fill="#000000" x="58.3527313093922" y="3" transform="rotate(180 58.3527313093922 0)" font-family="sans-serif">ACTED_IN</text></g><g class="relationship" transform="translate(-97.17540044789395 50.71904855729893) rotate(305.25319194713194)"><path class="outline" fill="#A5ABB6" stroke="none" d="M 25 0.5 L 26.309391302020934 0.5 L 26.309391302020934 -0.5 L 25 -0.5 Z M 56.309391302020934 0.5 L 57.61878260404187 0.5 L 57.61878260404187 3.5 L 64.61878260404187 0 L 57.61878260404187 -3.5 L 57.61878260404187 -0.5 L 56.309391302020934 -0.5 Z"/><text text-anchor="middle" pointer-events="none" font-size="8px" fill="#000000" x="41.309391302020934" y="3" font-family="sans-serif">ACT…</text></g><g class="relationship" transform="translate(-97.17540044789395 50.71904855729893) rotate(448.3960941968844)"><path class="outline" fill="#A5ABB6" stroke="none" d="M 25 0.5 L 26.12222460634642 0.5 L 26.12222460634642 -0.5 L 25 -0.5 Z M 61.45816210634642 0.5 L 62.58038671269284 0.5 L 62.58038671269284 3.5 L 69.58038671269284 0 L 62.58038671269284 -3.5 L 62.58038671269284 -0.5 L 61.45816210634642 -0.5 Z"/><text text-anchor="middle" pointer-events="none" font-size="8px" fill="#000000" x="43.79019335634642" y="3" font-family="sans-serif">ACTE…</text></g><g class="relationship" transform="translate(-97.17540044789395 50.71904855729893) rotate(423.56721320619283)"><path class="outline" fill="#A5ABB6" stroke="none" d="M 25 0.5 L 38.96562306573615 0.5 L 38.96562306573615 -0.5 L 25 -0.5 Z M 84.52812306573615 0.5 L 98.4937461314723 0.5 L 98.4937461314723 3.5 L 105.4937461314723 0 L 98.4937461314723 -3.5 L 98.4937461314723 -0.5 L 84.52812306573615 -0.5 Z"/><text text-anchor="middle" pointer-events="none" font-size="8px" fill="#000000" x="61.74687306573615" y="3" font-family="sans-serif">ACTED_IN</text></g><g class="relationship" transform="translate(-22.69268026220618 67.70344215804765) rotate(255.8360771126042)"><path class="outline" fill="#A5ABB6" stroke="none" d="M 25 0.5 L 25.329540234339106 0.5 L 25.329540234339106 -0.5 L 25 -0.5 Z M 60.665477734339106 0.5 L 60.99501796867821 0.5 L 60.99501796867821 3.5 L 67.99501796867821 0 L 60.99501796867821 -3.5 L 60.99501796867821 -0.5 L 60.665477734339106 -0.5 Z"/><text text-anchor="middle" pointer-events="none" font-size="8px" fill="#000000" x="42.997508984339106" y="3" transform="rotate(180 42.997508984339106 0)" font-family="sans-serif">ACTE…</text></g><g class="relationship" transform="translate(-22.69268026220618 67.70344215804765) rotate(492.8059937977083)"><path class="outline" fill="#A5ABB6" stroke="none" d="M 25 0.5 L 26.576385718219065 0.5 L 26.576385718219065 -0.5 L 25 -0.5 Z M 72.13888571821906 0.5 L 73.71527143643813 0.5 L 73.71527143643813 3.5 L 80.71527143643813 0 L 73.71527143643813 -3.5 L 73.71527143643813 -0.5 L 72.13888571821906 -0.5 Z"/><text text-anchor="middle" pointer-events="none" font-size="8px" fill="#000000" x="49.357635718219065" y="3" transform="rotate(180 49.357635718219065 0)" font-family="sans-serif">ACTED_IN</text></g><g class="relationship" transform="translate(-22.69268026220618 67.70344215804765) rotate(459.3222685554739)"><path class="outline" fill="#A5ABB6" stroke="none" d="M 25 0.5 L 26.54525094980326 0.5 L 26.54525094980326 -0.5 L 25 -0.5 Z M 67.65853219980326 0.5 L 69.20378314960652 0.5 L 69.20378314960652 3.5 L 76.20378314960652 0 L 69.20378314960652 -3.5 L 69.20378314960652 -0.5 L 67.65853219980326 -0.5 Z"/><text text-anchor="middle" pointer-events="none" font-size="8px" fill="#000000" x="47.10189157480326" y="3" transform="rotate(180 47.10189157480326 0)" font-family="sans-serif">ACTED…</text></g><g class="relationship" transform="translate(-152.43248980894438 73.52247789817429) rotate(318.10132837664594)"><path class="outline" fill="#A5ABB6" stroke="none" d="M 25 0.5 L 45.585155210922366 0.5 L 45.585155210922366 -0.5 L 25 -0.5 Z M 91.14765521092237 0.5 L 111.73281042184473 0.5 L 111.73281042184473 3.5 L 118.73281042184473 0 L 111.73281042184473 -3.5 L 111.73281042184473 -0.5 L 91.14765521092237 -0.5 Z"/><text text-anchor="middle" pointer-events="none" font-size="8px" fill="#000000" x="68.36640521092237" y="3" font-family="sans-serif">ACTED_IN</text></g><g class="relationship" transform="translate(-152.43248980894438 73.52247789817429) rotate(411.09150186258626)"><path class="outline" fill="#A5ABB6" stroke="none" d="M 25 0.5 L 27.596447755004014 0.5 L 27.596447755004014 -0.5 L 25 -0.5 Z M 57.596447755004014 0.5 L 60.19289551000803 0.5 L 60.19289551000803 3.5 L 67.19289551000803 0 L 60.19289551000803 -3.5 L 60.19289551000803 -0.5 L 57.596447755004014 -0.5 Z"/><text text-anchor="middle" pointer-events="none" font-size="8px" fill="#000000" x="42.596447755004014" y="3" font-family="sans-serif">ACT…</text></g><g class="relationship" transform="translate(-152.43248980894438 73.52247789817429) rotate(399.68395906045106)"><path class="outline" fill="#A5ABB6" stroke="none" d="M 25 0.5 L 47.36042312637191 0.5 L 47.36042312637191 -0.5 L 25 -0.5 Z M 92.92292312637191 0.5 L 115.28334625274383 0.5 L 115.28334625274383 3.5 L 122.28334625274383 0 L 115.28334625274383 -3.5 L 115.28334625274383 -0.5 L 92.92292312637191 -0.5 Z"/><text text-anchor="middle" pointer-events="none" font-size="8px" fill="#000000" x="70.14167312637191" y="3" font-family="sans-serif">ACTED_IN</text></g><g class="relationship" transform="translate(-72.18168515729297 285.7974955253006) rotate(285.63853589431983)"><path class="outline" fill="#A5ABB6" stroke="none" d="M 25 0.5 L 35.10460633227631 0.5 L 35.10460633227631 -0.5 L 25 -0.5 Z M 80.66710633227632 0.5 L 90.77171266455262 0.5 L 90.77171266455262 3.5 L 97.77171266455262 0 L 90.77171266455262 -3.5 L 90.77171266455262 -0.5 L 80.66710633227632 -0.5 Z"/><text text-anchor="middle" pointer-events="none" font-size="8px" fill="#000000" x="57.88585633227631" y="3" font-family="sans-serif">ACTED_IN</text></g></g><g class="layer nodes"><g class="node" transform="translate(46.8232537687207,91.78270221683128)"><circle class="outline" cx="0" cy="0" r="25" fill="#57C7E3" stroke="#23b3d7" stroke-width="2px"/><text text-anchor="middle" pointer-events="none" font-family="sans-serif" dy="1.5625" font-size="25" fill="#2A2C34"/><text text-anchor="middle" pointer-events="none" font-family="sans-serif" dy="1.5625" font-size="25" fill="#2A2C34"/><text text-anchor="middle" pointer-events="none" x="0" y="0" font-size="10px" fill="#2A2C34" font-family="sans-serif"> Hugo</text><text text-anchor="middle" pointer-events="none" x="0" y="10" font-size="10px" fill="#2A2C34" font-family="sans-serif"> Weaving</text></g><g class="node" transform="translate(139.33638451626544,193.02703481553138)"><circle class="outline" cx="0" cy="0" r="25" fill="#F79767" stroke="#f36924" stroke-width="2px"/><text text-anchor="middle" pointer-events="none" font-family="sans-serif" dy="1.5625" font-size="25" fill="#FFFFFF"/><text text-anchor="middle" pointer-events="none" font-family="sans-serif" dy="1.5625" font-size="25" fill="#FFFFFF"/><text text-anchor="middle" pointer-events="none" x="0" y="0" font-size="10px" fill="#FFFFFF" font-family="sans-serif"> Cloud</text><text text-anchor="middle" pointer-events="none" x="0" y="10" font-size="10px" fill="#FFFFFF" font-family="sans-serif"> Atlas</text></g><g class="node" transform="translate(222.04670966093266,286.469653425322)"><circle class="outline" cx="0" cy="0" r="25" fill="#57C7E3" stroke="#23b3d7" stroke-width="2px"/><text text-anchor="middle" pointer-events="none" font-family="sans-serif" dy="1.5625" font-size="25" fill="#2A2C34"/><text text-anchor="middle" pointer-events="none" font-family="sans-serif" dy="1.5625" font-size="25" fill="#2A2C34"/><text text-anchor="middle" pointer-events="none" x="0" y="0" font-size="10px" fill="#2A2C34" font-family="sans-serif"> Tom</text><text text-anchor="middle" pointer-events="none" x="0" y="10" font-size="10px" fill="#2A2C34" font-family="sans-serif"> Hanks</text></g><g class="node" transform="translate(130.55067600511015,314.5241380180446)"><circle class="outline" cx="0" cy="0" r="25" fill="#57C7E3" stroke="#23b3d7" stroke-width="2px"/><text text-anchor="middle" pointer-events="none" font-family="sans-serif" dy="1.5625" font-size="25" fill="#2A2C34"/><text text-anchor="middle" pointer-events="none" font-family="sans-serif" dy="1.5625" font-size="25" fill="#2A2C34"/><text text-anchor="middle" pointer-events="none" x="0" y="0" font-size="10px" fill="#2A2C34" font-family="sans-serif"> Jim</text><text text-anchor="middle" pointer-events="none" x="0" y="10" font-size="10px" fill="#2A2C34" font-family="sans-serif"> Broadb…</text></g><g class="node" transform="translate(262.2546112198416,205.45042788603922)"><circle class="outline" cx="0" cy="0" r="25" fill="#57C7E3" stroke="#23b3d7" stroke-width="2px"/><text text-anchor="middle" pointer-events="none" font-family="sans-serif" dy="1.5625" font-size="25" fill="#2A2C34"/><text text-anchor="middle" pointer-events="none" font-family="sans-serif" dy="1.5625" font-size="25" fill="#2A2C34"/><text text-anchor="middle" pointer-events="none" x="0" y="0" font-size="10px" fill="#2A2C34" font-family="sans-serif"> Halle</text><text text-anchor="middle" pointer-events="none" x="0" y="10" font-size="10px" fill="#2A2C34" font-family="sans-serif"> Berry</text></g><g class="node" transform="translate(152.24806997366215,7.7277648195027755)"><circle class="outline" cx="0" cy="0" r="25" fill="#F79767" stroke="#f36924" stroke-width="2px"/><text text-anchor="middle" pointer-events="none" font-family="sans-serif" dy="1.5625" font-size="25" fill="#FFFFFF"/><text text-anchor="middle" pointer-events="none" font-family="sans-serif" dy="1.5625" font-size="25" fill="#FFFFFF"/><text text-anchor="middle" pointer-events="none" x="0" y="0" font-size="10px" fill="#FFFFFF" font-family="sans-serif"> V for</text><text text-anchor="middle" pointer-events="none" x="0" y="10" font-size="10px" fill="#FFFFFF" font-family="sans-serif"> Vendetta</text></g><g class="node" transform="translate(265.8683765344323,51.698475675115716)"><circle class="outline" cx="0" cy="0" r="25" fill="#57C7E3" stroke="#23b3d7" stroke-width="2px"/><text text-anchor="middle" pointer-events="none" font-family="sans-serif" dy="1.5625" font-size="25" fill="#2A2C34"/><text text-anchor="middle" pointer-events="none" x="0" y="5" font-size="10px" fill="#2A2C34" font-family="sans-serif"> Ben Miles</text></g><g class="node" transform="translate(271.1093328708933,-32.66198382476049)"><circle class="outline" cx="0" cy="0" r="25" fill="#57C7E3" stroke="#23b3d7" stroke-width="2px"/><text text-anchor="middle" pointer-events="none" font-family="sans-serif" dy="1.5625" font-size="25" fill="#2A2C34"/><text text-anchor="middle" pointer-events="none" font-family="sans-serif" dy="1.5625" font-size="25" fill="#2A2C34"/><text text-anchor="middle" pointer-events="none" x="0" y="0" font-size="10px" fill="#2A2C34" font-family="sans-serif"> Natalie</text><text text-anchor="middle" pointer-events="none" x="0" y="10" font-size="10px" fill="#2A2C34" font-family="sans-serif"> Portman</text></g><g class="node" transform="translate(121.90257255108529,-110.58863132582061)"><circle class="outline" cx="0" cy="0" r="25" fill="#57C7E3" stroke="#23b3d7" stroke-width="2px"/><text text-anchor="middle" pointer-events="none" font-family="sans-serif" dy="1.5625" font-size="25" fill="#2A2C34"/><text text-anchor="middle" pointer-events="none" x="0" y="5" font-size="10px" fill="#2A2C34" font-family="sans-serif"> John Hurt</text></g><g class="node" transform="translate(213.79083749621705,-99.58266919039313)"><circle class="outline" cx="0" cy="0" r="25" fill="#57C7E3" stroke="#23b3d7" stroke-width="2px"/><text text-anchor="middle" pointer-events="none" font-family="sans-serif" dy="1.5625" font-size="25" fill="#2A2C34"/><text text-anchor="middle" pointer-events="none" font-family="sans-serif" dy="1.5625" font-size="25" fill="#2A2C34"/><text text-anchor="middle" pointer-events="none" x="0" y="0" font-size="10px" fill="#2A2C34" font-family="sans-serif"> Stephen</text><text text-anchor="middle" pointer-events="none" x="0" y="10" font-size="10px" fill="#2A2C34" font-family="sans-serif"> Rea</text></g><g class="node" transform="translate(-45.44827399662647,-22.464491836187783)"><circle class="outline" cx="0" cy="0" r="25" fill="#F79767" stroke="#f36924" stroke-width="2px"/><text text-anchor="middle" pointer-events="none" font-family="sans-serif" dy="1.5625" font-size="25" fill="#FFFFFF"/><text text-anchor="middle" pointer-events="none" font-family="sans-serif" dy="1.5625" font-size="25" fill="#FFFFFF"/><text text-anchor="middle" pointer-events="none" font-family="sans-serif" dy="1.5625" font-size="25" fill="#FFFFFF"/><text text-anchor="middle" pointer-events="none" x="0" y="-5" font-size="10px" fill="#FFFFFF" font-family="sans-serif"> The</text><text text-anchor="middle" pointer-events="none" x="0" y="5" font-size="10px" fill="#FFFFFF" font-family="sans-serif"> Matrix</text><text text-anchor="middle" pointer-events="none" x="0" y="15" font-size="10px" fill="#FFFFFF" font-family="sans-serif"> Revol…</text></g><g class="node" transform="translate(-97.17540044789395,50.71904855729893)"><circle class="outline" cx="0" cy="0" r="25" fill="#57C7E3" stroke="#23b3d7" stroke-width="2px"/><text text-anchor="middle" pointer-events="none" font-family="sans-serif" dy="1.5625" font-size="25" fill="#2A2C34"/><text text-anchor="middle" pointer-events="none" font-family="sans-serif" dy="1.5625" font-size="25" fill="#2A2C34"/><text text-anchor="middle" pointer-events="none" x="0" y="0" font-size="10px" fill="#2A2C34" font-family="sans-serif"> Laurence</text><text text-anchor="middle" pointer-events="none" x="0" y="10" font-size="10px" fill="#2A2C34" font-family="sans-serif"> Fishbur…</text></g><g class="node" transform="translate(-22.69268026220618,67.70344215804765)"><circle class="outline" cx="0" cy="0" r="25" fill="#57C7E3" stroke="#23b3d7" stroke-width="2px"/><text text-anchor="middle" pointer-events="none" font-family="sans-serif" dy="1.5625" font-size="25" fill="#2A2C34"/><text text-anchor="middle" pointer-events="none" x="0" y="5" font-size="10px" fill="#2A2C34" font-family="sans-serif"> Carrie-A…</text></g><g class="node" transform="translate(-152.43248980894438,73.52247789817429)"><circle class="outline" cx="0" cy="0" r="25" fill="#57C7E3" stroke="#23b3d7" stroke-width="2px"/><text text-anchor="middle" pointer-events="none" font-family="sans-serif" dy="1.5625" font-size="25" fill="#2A2C34"/><text text-anchor="middle" pointer-events="none" font-family="sans-serif" dy="1.5625" font-size="25" fill="#2A2C34"/><text text-anchor="middle" pointer-events="none" x="0" y="0" font-size="10px" fill="#2A2C34" font-family="sans-serif"> Keanu</text><text text-anchor="middle" pointer-events="none" x="0" y="10" font-size="10px" fill="#2A2C34" font-family="sans-serif"> Reeves</text></g><g class="node" transform="translate(-94.5281161175379,145.2623795563534)"><circle class="outline" cx="0" cy="0" r="25" fill="#F79767" stroke="#f36924" stroke-width="2px"/><text text-anchor="middle" pointer-events="none" font-family="sans-serif" dy="1.5625" font-size="25" fill="#FFFFFF"/><text text-anchor="middle" pointer-events="none" font-family="sans-serif" dy="1.5625" font-size="25" fill="#FFFFFF"/><text text-anchor="middle" pointer-events="none" font-family="sans-serif" dy="1.5625" font-size="25" fill="#FFFFFF"/><text text-anchor="middle" pointer-events="none" x="0" y="-5" font-size="10px" fill="#FFFFFF" font-family="sans-serif"> The</text><text text-anchor="middle" pointer-events="none" x="0" y="5" font-size="10px" fill="#FFFFFF" font-family="sans-serif"> Matrix</text><text text-anchor="middle" pointer-events="none" x="0" y="15" font-size="10px" fill="#FFFFFF" font-family="sans-serif"> Reloa…</text></g><g class="node" transform="translate(-39.086413901299096,167.57061004200767)"><circle class="outline" cx="0" cy="0" r="25" fill="#F79767" stroke="#f36924" stroke-width="2px"/><text text-anchor="middle" pointer-events="none" font-family="sans-serif" dy="1.5625" font-size="25" fill="#FFFFFF"/><text text-anchor="middle" pointer-events="none" font-family="sans-serif" dy="1.5625" font-size="25" fill="#FFFFFF"/><text text-anchor="middle" pointer-events="none" x="0" y="0" font-size="10px" fill="#FFFFFF" font-family="sans-serif"> The</text><text text-anchor="middle" pointer-events="none" x="0" y="10" font-size="10px" fill="#FFFFFF" font-family="sans-serif"> Matrix</text></g><g class="node" transform="translate(-72.18168515729297,285.7974955253006)"><circle class="outline" cx="0" cy="0" r="25" fill="#57C7E3" stroke="#23b3d7" stroke-width="2px"/><text text-anchor="middle" pointer-events="none" font-family="sans-serif" dy="1.5625" font-size="25" fill="#2A2C34"/><text text-anchor="middle" pointer-events="none" font-family="sans-serif" dy="1.5625" font-size="25" fill="#2A2C34"/><text text-anchor="middle" pointer-events="none" x="0" y="0" font-size="10px" fill="#2A2C34" font-family="sans-serif"> Emil</text><text text-anchor="middle" pointer-events="none" x="0" y="10" font-size="10px" fill="#2A2C34" font-family="sans-serif"> Eifrem</text></g></g></svg>